<?xml version="1.0" encoding="utf-8"?>
<!DOCTYPE svg PUBLIC "-//W3C//DTD SVG 1.0//EN" "http://www.w3.org/TR/2001/REC-SVG-20010904/DTD/svg10.dtd">
<svg version="1.0" xmlns="http://www.w3.org/2000/svg" width="277px" height="277px" viewBox="0 0 277 277" preserveAspectRatio="xMidYMid meet">
 <g fill="#2677f0">
  <path d="M135.1 257 c-2.4 -1.1 -11.5 -6.4 -20.2 -11.7 -14.3 -8.6 -15.9 -9.9 -16.5 -12.8 -0.8 -4.7 -0.2 -7.6 2.1 -8.9 1.1 -0.6 2.4 -1.6 3 -2.3 1 -1.1 23.7 -1.9 40.4 -1.4 5.2 0.1 7.6 -0.4 11.8 -2.5 5.3 -2.5 10.3 -2.7 10.3 -0.4 0 0.6 1.1 1 2.5 1 1.4 0 2.5 0.6 2.5 1.3 0 1.2 6.3 3.2 15 4.7 2.5 0.4 5.9 1.1 7.6 1.5 2.6 0.6 3.2 0.4 3.7 -1.4 0.4 -1.8 1.3 -2.1 6.6 -2.1 8.2 0 8 1.6 -1.1 7.2 -4 2.5 -15.5 9.5 -25.5 15.6 -10 6.1 -19.8 11.8 -21.9 12.7 -5.2 2.1 -14.9 1.9 -20.3 -0.5z"/>
  <path d="M71 106.3 c-11.2 -13.3 -14.4 -16.8 -15.9 -17.7 -2.7 -1.6 -4 -4 -4.1 -7.3 0 -3.2 0.2 -3.3 3.8 -3.3 2.8 0 5.6 1.1 9.8 3.8 3.2 2.1 9.4 5.8 13.6 8.2 5.9 3.4 7.8 5 7.8 6.7 0 1.6 -0.5 2 -1.9 1.6 -1.2 -0.3 -1.9 0 -1.8 0.9 0 0.7 -0.1 4.1 -0.1 7.6 -0.2 6.1 -0.3 6.2 -2.9 6.1 -2.2 0 -4.1 -1.5 -8.3 -6.6z"/>
 </g>
 <g fill="#1f83ee">
  <path d="M105 239 c0 -0.7 0.3 -1 0.7 -0.7 0.3 0.4 0.3 1 0 1.4 -0.4 0.3 -0.7 0 -0.7 -0.7z"/>
  <path d="M186.3 236.4 c-0.8 -2.1 0.8 -3.4 3.5 -2.8 2.7 0.8 2.8 2 0.3 3.4 -2.6 1.3 -3.1 1.3 -3.8 -0.6z"/>
  <path d="M97 234.6 c-1.9 -1.2 -9.2 -5.8 -16.2 -10.1 -12.5 -7.7 -14.9 -10.1 -10.8 -11.2 1 -0.3 2.2 -1.4 2.5 -2.4 0.4 -1 1.2 -1.9 1.9 -1.9 0.7 0 1.8 -1.1 2.4 -2.5 1 -2.2 1.8 -2.5 6.5 -2.5 3 0 9.5 -0.3 14.5 -0.6 9.1 -0.7 9.1 -0.7 10.1 2 1 2.3 1.6 2.6 6.2 2.6 4.4 0 6.5 0.8 15.2 5.8 9.4 5.2 10.7 5.7 16.4 5.7 6.2 0 6.2 0 4.2 2 -1.7 1.7 -3 1.9 -8.7 1.7 -7.2 -0.4 -9.4 -0.4 -24.6 0 -6.9 0.2 -10.1 0.7 -10.3 1.6 -0.3 0.6 -1 1.2 -1.8 1.2 -0.7 0 -1.8 0.7 -2.5 1.5 -0.9 1.1 -0.9 1.9 0.3 3.6 1.2 1.7 1.3 2.5 0.4 4 -1.4 2.3 -1.4 2.3 -5.7 -0.5z"/>
  <path d="M193.3 232 c-0.3 -1.1 -1.1 -2 -1.8 -2 -0.7 0 -1.5 -0.5 -1.7 -1.2 -0.3 -0.7 -2.4 -1.3 -4.9 -1.4 -2.4 -0.1 -5.7 -0.7 -7.4 -1.4 -1.6 -0.7 -4.5 -1.3 -6.2 -1.3 -2.6 -0.1 -3.3 -0.5 -3.3 -2 0 -1.2 -0.5 -1.7 -1.4 -1.4 -0.8 0.3 -2.4 -0.3 -3.6 -1.3 -1.6 -1.4 -3.3 -1.8 -5.9 -1.5 -2.9 0.4 -1.2 -1 9.9 -7.5 13.6 -8.1 16.9 -9.2 21.3 -6.8 1.2 0.6 5.3 1.1 9 1 4.9 -0.1 7.9 0.4 10.2 1.7 3.7 1.9 6.5 4.5 6.5 5.9 0 0.5 0.9 1.7 2 2.7 3 2.7 2.5 4 -2.7 7.1 -3.5 2.1 -5.8 2.8 -8.4 2.6 -3.9 -0.4 -6.2 1.4 -3.8 2.9 1.1 0.6 1.1 1.1 0.1 2.1 -0.9 0.9 -1.5 0.9 -2.4 0 -0.7 -0.7 -1.9 -1.2 -2.7 -1.2 -1.3 0.1 -1.2 0.4 0.4 1.6 1.7 1.3 1.8 1.6 0.5 2.4 -2.3 1.4 -3.1 1.2 -3.7 -1z"/>
  <path d="M71 107.3 c-9.6 -11.4 -15.3 -17.8 -16.4 -18.2 -2.1 -0.8 -3.5 -3.6 -3.6 -6.8 0 -3.1 0.2 -3.3 3.5 -3.3 2.2 0 3.8 0.6 4.1 1.5 0.3 0.8 1.4 1.7 2.5 2 1 0.4 2.4 1.5 2.9 2.5 0.8 1.5 0 1.3 -4 -1.2 -5.3 -3.3 -7.4 -3.4 -3.9 -0.2 5.2 4.9 8.4 8.3 12.1 12.9 6.1 7.5 11.7 13.5 12.8 13.5 0.6 0 1 0.9 1 2 0 1.5 -0.6 2 -2.7 1.9 -2.2 0 -4 -1.5 -8.3 -6.6z"/>
 </g>
 <g fill="#1b8bee">
  <path d="M89.6 230.1 c-0.4 -0.7 -0.5 -1.5 -0.2 -1.8 0.9 -0.9 1.9 0.4 1.4 1.8 -0.4 1.1 -0.6 1.1 -1.2 0z"/>
  <path d="M145.8 220.3 c0.6 -0.2 1.8 -0.2 2.5 0 0.6 0.3 0.1 0.5 -1.3 0.5 -1.4 0 -1.9 -0.2 -1.2 -0.5z"/>
  <path d="M213.2 218.7 c-1.2 -1.3 -2.2 -2.7 -2.2 -3.1 0 -1.1 -3 -3.9 -5.9 -5.4 -1.4 -0.8 -6 -1.5 -10.1 -1.6 -4.1 -0.1 -8.4 -0.8 -9.6 -1.4 -1.4 -0.8 -2.4 -0.8 -3.1 -0.1 -0.8 0.8 -1.3 0.7 -1.7 0 -1.1 -1.7 -4.7 -1.3 -5.3 0.7 -0.5 1.8 -11.9 8 -12.9 6.9 -0.3 -0.3 0.5 -1.2 1.8 -2 1.2 -0.7 8.8 -5.4 16.8 -10.3 16.4 -10.2 18 -11 18 -8.9 0 0.8 0.6 1.5 1.4 1.5 0.7 0 2.5 0.9 3.9 2 1.8 1.4 4 2 7.8 2 3.4 0 5.9 0.6 7 1.6 1.5 1.3 3.9 1.6 11.9 1.5 5.5 -0.1 10 0.2 10 0.7 0 1.9 -14.3 13.2 -16.7 13.2 -0.5 0 -2.5 1.1 -4.5 2.5 -2 1.4 -3.9 2.5 -4.1 2.5 -0.2 0 -1.3 -1 -2.5 -2.3z"/>
  <path d="M61.7 213 c-12.8 -8.5 -16.1 -15.4 -8.9 -18.9 1.8 -0.9 3.5 -2.6 3.8 -3.8 0.6 -2.1 1.2 -2.3 6.4 -2.3 10.1 0 18 1.2 18 2.6 0 0.9 1.1 1.4 3 1.4 2.3 0 3 -0.4 3 -2 0 -2.5 0.5 -2.5 3.8 0.1 3.2 2.4 25.9 16.4 35.1 21.6 5.3 3 6.1 3.8 4.5 4.4 -2 0.7 -4.3 -0.2 -6.7 -2.5 -2.1 -2.1 -11 -2.9 -13.3 -1.1 -2.6 2 -4.8 1.8 -6.9 -0.5 -1 -1.1 -1.3 -2 -0.7 -2 0.7 0 1.2 0.5 1.2 1 0 0.6 0.5 1 1.1 1 0.6 0 0.8 -0.9 0.4 -2.2 -1.1 -3.4 -2.3 -4.4 -3.7 -3 -1.5 1.5 -3.2 1.6 -2.2 0.1 0.4 -0.8 -0.1 -0.9 -1.7 -0.3 -1.3 0.4 -5.7 0.8 -9.8 0.8 -6.7 0.1 -7.5 0.3 -8.4 2.4 -0.6 1.2 -1.6 2.2 -2.3 2.2 -0.7 0 -1.5 0.9 -1.9 1.9 -0.3 1 -1.3 2.2 -2.3 2.5 -0.9 0.3 -2.2 0.8 -2.7 1.1 -0.6 0.3 -4.5 -1.8 -8.8 -4.5z"/>
  <path d="M176 209.5 c0 -0.3 0.2 -0.5 0.5 -0.5 0.3 0 0.5 0.2 0.5 0.5 0 0.3 -0.2 0.5 -0.5 0.5 -0.3 0 -0.5 -0.2 -0.5 -0.5z"/>
  <path d="M74.3 112 c-1.3 -1.5 -2.3 -3.3 -2.3 -3.9 0 -0.6 -0.7 -1.1 -1.5 -1.1 -0.8 0 -1.5 -0.4 -1.5 -0.9 0 -0.5 -1.2 -2.3 -2.7 -3.8 -15.3 -16.1 -16.3 -17.4 -16.3 -20.9 0 -3.2 0.2 -3.4 3.1 -3.4 1.9 0 3.7 0.7 4.5 1.8 2 2.5 1.7 3.4 -0.7 2.2 -1.1 -0.7 -2.3 -0.9 -2.6 -0.7 -0.6 0.7 1.9 4.6 3.2 4.9 1.1 0.3 6.6 6.3 16.5 18.1 3 3.6 6.1 6.6 6.8 6.6 0.6 0.1 1.2 1 1.2 2.1 0 3.2 -5 2.6 -7.7 -1z"/>
  <path d="M60.5 84 c-0.3 -0.5 -0.2 -1 0.4 -1 0.5 0 1.3 0.5 1.6 1 0.3 0.6 0.2 1 -0.4 1 -0.5 0 -1.3 -0.4 -1.6 -1z"/>
 </g>
 <g fill="#1795ef">
  <path d="M223 215 c0 -0.5 0.7 -1 1.5 -1 0.8 0 1.5 0.5 1.5 1 0 0.6 -0.7 1 -1.5 1 -0.8 0 -1.5 -0.4 -1.5 -1z"/>
  <path d="M125.3 212.3 c0.4 -0.3 1 -0.3 1.4 0 0.3 0.4 0 0.7 -0.7 0.7 -0.7 0 -1 -0.3 -0.7 -0.7z"/>
  <path d="M220.1 205.9 c-1.9 -1 -3.9 -2.3 -4.4 -2.8 -0.6 -0.6 -3.5 -1.1 -6.5 -1.1 -3.9 0 -6.1 -0.6 -7.9 -2 -1.4 -1.1 -3.1 -2 -3.8 -2 -0.7 0 -1.8 -0.6 -2.4 -1.4 -1 -1.1 -0.3 -2 3.3 -4.6 2.5 -1.8 5.7 -5 7.1 -7.1 2.5 -3.8 2.7 -3.9 8.5 -3.9 3.2 0 6.2 0.5 6.5 1 0.3 0.6 1.6 1 2.8 1 1.2 0 4 0.7 6.3 1.6 3.4 1.3 4.5 2.4 5.8 5.8 0.9 2.3 1.6 4.7 1.6 5.3 0 0.6 1.2 2 2.7 3.1 2.5 1.8 2.6 2.1 1.2 4.3 -1.4 2 -2.3 2.2 -7.6 2 -4.7 -0.2 -6.2 0.1 -6.6 1.3 -0.8 2 -2.3 1.9 -6.6 -0.5z"/>
  <path d="M50.1 202.8 c-1 -1.5 -1.6 -6.2 -1.9 -14 -0.4 -11.5 -0.4 -11.8 1.7 -11.8 1.6 0 2.1 0.6 2.1 2.7 0 2.1 0.3 2.4 1.2 1.5 0.7 -0.7 2.2 -1.2 3.4 -1.2 1.4 0 2.5 -0.8 2.9 -2 0.6 -1.8 1.5 -2 12 -2 11.3 0 11.3 0 12.4 3.3 0.7 1.7 2.4 5 3.8 7.2 6.1 9 3.9 10.3 -13.3 8.1 -0.6 -0.1 -1.9 -1 -2.9 -1.9 -1.2 -1.3 -3 -1.7 -6.5 -1.5 -4.1 0.3 -5 0.7 -5.5 2.6 -0.3 1.2 -1 2.2 -1.6 2.2 -0.6 0 -2.3 0.9 -3.9 2 -2.1 1.5 -2.6 2.5 -2.2 4.5 0.5 3.1 0.1 3.2 -1.7 0.3z m27.9 -9.8 c0 -0.5 -0.5 -1 -1.1 -1 -0.5 0 -0.7 0.5 -0.4 1 0.3 0.6 0.8 1 1.1 1 0.2 0 0.4 -0.4 0.4 -1z"/>
  <path d="M110.3 203.3 c0.4 -0.3 1 -0.3 1.4 0 0.3 0.4 0 0.7 -0.7 0.7 -0.7 0 -1 -0.3 -0.7 -0.7z"/>
  <path d="M137.8 196.2 c-4.2 -2.5 -3.5 -4.2 1.7 -4.2 4.3 0 4.5 0.1 4.5 3 0 3.5 -2 3.9 -6.2 1.2z"/>
  <path d="M110.3 179.4 c-4.4 -2.2 -4.3 -4.4 0.2 -4.4 3.2 0 3.5 0.2 3.5 3 0 1.7 -0.1 3 -0.2 3 -0.2 0 -1.8 -0.8 -3.5 -1.6z"/>
  <path d="M75.6 114.4 c-0.3 -0.9 -0.6 -2.4 -0.6 -3.5 0 -1.1 -0.7 -1.9 -1.6 -1.9 -2.2 0 -7.4 -5.1 -7.4 -7.2 0 -1 -0.6 -1.8 -1.2 -1.8 -1.6 0 -12.8 -11.3 -12.8 -12.7 0 -0.6 -0.7 -1.3 -1.5 -1.7 -0.8 -0.3 -1.5 -1.6 -1.5 -3 0 -4.5 1 -5.6 5 -5.6 3.4 0 3.8 0.3 4.2 2.9 0.4 2.6 0.2 2.9 -1.4 2 -4.2 -2.3 -4.1 0 0.2 4.3 2.5 2.4 7 7.3 10 10.8 3 3.5 7 8 8.7 9.9 1.8 2 3.3 3.9 3.3 4.4 0 0.4 0.7 0.7 1.5 0.7 0.8 0 1.5 0.9 1.5 2 0 1.5 -0.7 2 -2.9 2 -1.7 0 -3.1 -0.6 -3.5 -1.6z"/>
  <path d="M61 84.5 c0 -0.3 0.2 -0.5 0.5 -0.5 0.3 0 0.5 0.2 0.5 0.5 0 0.3 -0.2 0.5 -0.5 0.5 -0.3 0 -0.5 -0.2 -0.5 -0.5z"/>
 </g>
 <g fill="#189fed">
  <path d="M237.2 202 c-1.7 -1.1 -3.2 -2.5 -3.2 -3.2 0 -0.7 -0.7 -3.1 -1.6 -5.5 -1.6 -4.2 -3.9 -5.7 -10.4 -6.9 -1.4 -0.2 -3.5 -1 -4.8 -1.6 -3.1 -1.6 -9.7 0.1 -9.7 2.5 0 1.8 -4.3 4.6 -6.1 4 -0.6 -0.2 0.2 -1.8 1.7 -3.4 2.9 -3.1 6.9 -13.9 6.9 -18.6 0 -2.3 0.3 -2.5 3.1 -1.9 1.7 0.3 4.6 0.6 6.3 0.6 2.3 0 4.4 1.1 7.2 3.5 4 3.6 5.4 4.2 5.4 2.5 0 -0.5 0.9 -1 2 -1 1.1 0 2 -0.4 2 -1 0 -0.5 1.6 -1 3.5 -1 3.5 0 3.5 0 3.5 14.3 -0.1 9.3 -0.5 15 -1.3 16.4 -1.2 2.3 -1.2 2.3 -4.5 0.3z"/>
  <path d="M142.8 198.3 c-1 -0.2 -1.8 -1.1 -1.8 -1.9 0 -0.8 -0.9 -1.3 -2.3 -1.2 -1.3 0.1 -3.6 -0.7 -5.3 -1.9 -1.6 -1.1 -7.2 -4.6 -12.4 -7.8 -5.2 -3.2 -9.8 -6.2 -10.2 -6.9 -0.4 -0.6 -0.8 -0.7 -0.8 -0.3 0 0.5 -1.3 0 -3 -1 -2 -1.1 -3 -2.5 -3 -4.1 0 -2.4 0.1 -2.5 8 -2 4.5 0.3 8.3 0.1 8.6 -0.4 1.2 -1.9 18.4 0.3 18.4 2.4 0 0.4 3.3 0.8 7.4 0.8 5.1 0 7.7 0.4 8.5 1.4 2.3 2.8 6.1 2.9 10 0.2 2.5 -1.8 5 -2.6 7.8 -2.6 4.3 0 5.3 1 5.3 5.5 0 2.3 -0.4 2.6 -22.5 16.3 -5.1 3.1 -9.6 4.4 -12.7 3.5z"/>
  <path d="M49.4 186.9 c-0.4 -0.6 -0.9 -7.2 -1.2 -14.5 -0.5 -13.2 -0.4 -13.4 1.7 -13.4 1.7 0 2.1 0.6 2.1 3.3 0.1 5.5 2 6.9 9.7 7 3.7 0.1 9.7 -0.2 13.3 -0.7 6.5 -0.8 6.5 -0.8 7.6 4.8 1 5.5 1 5.5 -2.1 5.8 -1.7 0.2 -2.9 0.8 -2.8 1.6 0.4 1.9 -1.4 1.4 -2.2 -0.5 -0.6 -1.7 -0.7 -1.7 -1.9 0 -1.6 2.1 -2.3 2.1 -4.2 0.2 -2.2 -2.2 -6.1 -1.9 -6.9 0.5 -0.4 1.2 -1.5 2 -2.7 2 -1.2 0 -3.6 1.1 -5.4 2.5 -3.7 2.8 -4 2.9 -5 1.4z"/>
  <path d="M83.7 185.2 c-1.8 -2 -2.3 -5.2 -0.8 -5.2 0.5 0 1.8 1.6 3 3.5 2.2 3.9 0.8 5 -2.2 1.7z"/>
  <path d="M75.3 115.4 c-0.3 -0.9 -2.5 -3.6 -4.7 -5.9 -8.3 -8.5 -20.1 -21.7 -21.2 -23.8 -1.9 -3.6 0.4 -9.1 3.9 -9.5 2.1 -0.3 2.7 0.1 2.7 1.5 0 1.1 0.5 2.4 1.2 3.1 0.9 0.9 0.9 1.2 0.1 1.2 -0.7 0 -1.5 -0.5 -1.8 -1 -0.8 -1.2 -3.5 -1.3 -3.5 -0.1 0 0.4 2.1 3 4.6 5.7 10.7 11.2 22.4 24.6 22.4 25.4 0 0.6 0.7 1 1.5 1 0.8 0 1.5 0.9 1.5 2 0 1.6 -0.7 2 -3 2 -1.9 0 -3.3 -0.6 -3.7 -1.6z"/>
 </g>
 <g fill="#0faceb">
  <path d="M241.3 199.3 c-1.9 -0.7 -1.7 -8.3 0.2 -8.3 1.1 0 1.5 1.2 1.5 4.5 0 2.5 -0.1 4.5 -0.2 4.4 -0.2 0 -0.9 -0.3 -1.5 -0.6z"/>
  <path d="M150.5 196 c-1.1 -1.8 1.5 -4 4.6 -4 3.7 0 3.7 1.1 0 3.3 -3.4 2 -3.8 2 -4.6 0.7z"/>
  <path d="M176 178.5 c0 -1.7 -2 -4.4 -6.6 -8.9 -6.6 -6.5 -6.7 -6.5 -11.1 -5.9 -2.8 0.4 -5.3 0.1 -6.8 -0.7 -2 -1.1 -2.8 -1 -4.9 0.3 -2 1.3 -4.9 1.6 -14.7 1.5 -12.1 -0.2 -12.2 -0.2 -14.3 2.5 -1.6 2 -3.1 2.7 -5.7 2.7 -3.3 0 -3.6 0.3 -4.5 3.7 -0.9 3.8 -0.9 3.8 -3 1.5 -2 -2.1 -2.2 -3.5 -2.3 -17.8 -0.1 -15.4 -0.1 -15.4 3.9 -15.4 3.6 0 4 -0.2 4 -2.6 0 -2.5 0 -2.5 5.1 0.3 2.9 1.5 7 4.5 9.2 6.6 2.2 2 4.6 3.7 5.4 3.7 0.7 0 3.7 1.2 6.6 2.7 9.2 4.7 14.2 3.6 29.8 -6.3 3.7 -2.3 7.4 -1.2 8.7 2.6 1.1 3.1 1.9 3.5 4.6 2.4 1 -0.4 1.6 -1.8 1.6 -4.1 0 -3.4 0 -3.4 4.3 -3.1 4.2 0.3 4.2 0.3 4.5 12.8 0.1 6.9 0 13.5 -0.3 14.8 -0.5 2.1 -10.1 9.2 -12.5 9.2 -0.5 0 -1 -1.1 -1 -2.5z"/>
  <path d="M237 172.7 c0 -2.9 -0.6 -6 -1.2 -6.9 -1.4 -1.8 -7.6 -3 -8.4 -1.6 -0.3 0.4 -1.6 0.8 -2.9 0.8 -1.3 0 -2.8 0.8 -3.3 1.7 -0.7 1.2 -2.4 1.7 -5.8 1.7 -4.9 0.1 -4.9 0.1 -5.2 -16.5 -0.2 -16.6 -0.2 -16.6 6.2 -16.7 3.6 -0.1 6.8 0.3 7.1 0.8 0.4 0.6 2.2 1 4.1 1 1.9 0 3.4 0.5 3.4 1 0 0.6 0.7 1 1.5 1 0.8 0 1.9 0.9 2.5 2 0.6 1.1 1.5 2 2.1 2 1.5 0 3.8 2.5 4.9 5.5 0.5 1.4 1 8.7 1 16.1 0 11 -0.3 13.4 -1.4 13.4 -0.8 0 -1.7 -1 -1.9 -2.2 -0.4 -2.3 -0.4 -2.3 -0.6 0 -0.2 4.6 -2.1 2 -2.1 -3.1z"/>
  <path d="M52 163.1 c-3.5 -0.6 -3.5 -0.6 -3.8 -9.3 -0.2 -7.3 0 -8.8 1.2 -8.8 0.9 0 2 -0.9 2.6 -2 0.6 -1.1 1.6 -2 2.2 -2 0.7 0 2.3 -1.1 3.7 -2.4 3.2 -2.9 10 -6.6 12.3 -6.6 2 0 5.8 -5 5.8 -7.8 0 -1 -1.1 -3.6 -2.5 -5.6 -1.4 -2 -2.5 -4.1 -2.5 -4.6 0 -0.5 -1.3 -1.8 -3 -3 -1.6 -1.2 -3 -2.9 -3 -3.9 0 -1.2 -1 -2 -2.9 -2.4 -2.1 -0.4 -3 -1.4 -3.5 -3.4 -0.4 -1.5 -2.7 -5.4 -5.2 -8.6 -4.6 -5.9 -5.6 -10.5 -3.4 -14.8 1.4 -2.5 4 -2.5 4 0.1 0 1.3 -0.5 1.8 -1.5 1.4 -5.1 -2 3.9 9.5 21.1 27.1 2.2 2.3 4.4 5 4.7 5.9 0.4 0.9 1.3 1.6 2.2 1.6 1.3 0 1.5 2.9 1.5 22.1 0 22.2 0 22.2 -6.9 21.6 -7.2 -0.6 -8.8 0.1 -10.4 4.6 -0.7 1.8 -5.3 2.1 -12.7 0.8z"/>
 </g>
 <g fill="#0fb0e8">
  <path d="M184.3 174.4 c-0.3 -0.9 0 -2 0.8 -2.5 1 -0.6 1.3 -2.8 1.1 -8.6 -0.3 -9.4 -0.3 -11.2 0 -13.7 0.2 -1 -0.3 -2.1 -0.9 -2.3 -0.7 -0.3 -1.3 0 -1.3 0.7 0 0.6 0.5 0.8 1.1 0.4 0.8 -0.4 0.9 0.1 0.4 1.7 -0.9 3.1 -1.3 3.4 -5.6 5.2 -3 1.2 -3.8 1.2 -5.4 0.1 -1.3 -1 -2.1 -1.1 -2.6 -0.3 -0.5 0.8 -0.8 0.8 -1.3 0 -0.4 -0.6 -0.2 -1.1 0.3 -1.1 1.7 0 1.3 -2.7 -0.6 -4.5 -1.5 -1.5 -1.8 -1.6 -2.8 -0.2 -1.2 1.7 -8.5 3.4 -8.5 2.1 0 -0.5 3 -2.7 6.6 -4.9 18.8 -11.5 16.9 -10.6 17.2 -8 0.3 2 1 2.4 4 2.7 3.7 0.3 3.7 0.3 4 14.3 0.2 12.5 0 14.3 -1.8 17.3 -2.2 3.5 -3.7 4.1 -4.7 1.6z"/>
  <path d="M237 162.3 c0 -2.9 0.2 -2.9 1.9 0.5 1 1.8 0.9 2.2 -0.4 2.2 -1 0 -1.5 -0.9 -1.5 -2.7z"/>
  <path d="M240.8 161.3 c0.7 -0.3 1.6 -0.2 1.9 0.1 0.4 0.3 -0.2 0.6 -1.3 0.5 -1.1 0 -1.4 -0.3 -0.6 -0.6z"/>
  <path d="M145 159.5 c0 -0.3 0.2 -0.5 0.5 -0.5 0.3 0 0.5 0.2 0.5 0.5 0 0.3 -0.2 0.5 -0.5 0.5 -0.3 0 -0.5 -0.2 -0.5 -0.5z"/>
  <path d="M182 159.4 c0 -0.6 0.7 -1.9 1.5 -3 0.8 -1 1.4 -1.4 1.4 -0.9 0 0.6 -0.6 1.9 -1.4 2.9 -0.8 1.1 -1.5 1.5 -1.5 1z"/>
  <path d="M239.9 157.5 c-0.1 -1.4 -0.3 -2.9 -0.4 -3.5 -0.1 -0.5 -0.3 -1.6 -0.4 -2.3 -0.1 -1.8 -3.6 -5.8 -4.4 -5.1 -0.3 0.3 -1.3 -0.6 -2.2 -2 -1 -1.4 -2.4 -2.6 -3.1 -2.6 -0.8 0 -1.4 -0.5 -1.4 -1.1 0 -0.6 -0.7 -0.3 -1.6 0.5 -2.2 2.3 -3.9 2 -5.2 -0.8 -1.3 -2.9 -5.5 -2.6 -4.5 0.2 0.4 1 0.3 1.4 -0.2 1 -0.4 -0.4 -1.3 -0.1 -1.9 0.7 -0.7 1 -1.6 1.2 -2.5 0.6 -1.1 -0.7 -1.6 -3.9 -1.9 -12.5 -0.4 -11.2 -0.4 -11.6 1.6 -11.6 1.2 0 3 1.3 4.2 3 1.7 2.3 2.9 3 5.6 3 3.8 0 7 2.3 7.6 5.5 0.4 2.3 4.4 3.3 6.1 1.6 0.6 -0.6 2.6 -1.1 4.4 -1.1 3.3 0 3.3 0 3.3 14.5 0 12.2 -0.2 14.5 -1.5 14.5 -0.9 0 -1.5 -1 -1.6 -2.5z"/>
  <path d="M136.3 158.3 c0.4 -0.3 1 -0.3 1.4 0 0.3 0.4 0 0.7 -0.7 0.7 -0.7 0 -1 -0.3 -0.7 -0.7z"/>
  <path d="M139 155.4 c-1.9 -0.8 -6.3 -1.6 -9.7 -1.6 -3.4 -0.1 -6 -0.5 -5.6 -1 0.3 -0.5 -0.5 -2 -1.8 -3.4 -2.6 -2.8 -3.3 -5.4 -1.5 -5.4 0.7 0 5 2.3 9.6 5 4.6 2.8 9.8 5.4 11.4 5.8 1.7 0.5 2.6 1.1 2.1 1.4 -0.6 0.3 -2.6 0 -4.5 -0.8z"/>
  <path d="M168 153.5 c0 -0.3 0.2 -0.5 0.5 -0.5 0.3 0 0.5 0.2 0.5 0.5 0 0.3 -0.2 0.5 -0.5 0.5 -0.3 0 -0.5 -0.2 -0.5 -0.5z"/>
  <path d="M48.1 133.8 c-0.1 -18.8 -0.1 -18.8 2.9 -18.8 3 0 3 0 3 7 0 7 0 7 2.9 7 4.2 0 6.1 -0.9 6.1 -3 0 -1.8 2.4 -4.3 5.3 -5.3 3.1 -1.1 1.9 -4.7 -3.3 -9.8 -2.8 -2.7 -5.3 -4.9 -5.8 -4.9 -0.4 0 -1.8 -2.3 -3.1 -5.1 -1.3 -2.8 -3.7 -7.1 -5.3 -9.4 -2.6 -3.7 -2.9 -4.8 -2.3 -8.4 0.9 -5.5 3.4 -8.6 6.3 -7.7 1.6 0.6 2.2 1.5 2.2 3.7 0 2.9 -0.1 3 -2.2 1.5 -3.6 -2.5 -5.1 -2.1 -3.2 0.9 0.9 1.4 1.2 2.5 0.8 2.5 -0.5 0.1 0.7 1.5 2.6 3.2 1.9 1.7 2.9 2.7 2.1 2.3 -0.8 -0.5 -0.3 0.7 1.1 2.6 1.5 1.9 3 4.7 3.3 6.2 0.6 2 1.5 3 3.6 3.4 1.9 0.4 2.9 1.2 2.9 2.4 0 1 1.1 2.6 2.5 3.5 2.4 1.5 3.1 2.5 7.1 10.1 1 1.8 2.4 3.4 3.3 3.6 1.3 0.4 1.3 0.5 -0.1 0.6 -1.4 0.1 -1.8 1 -1.8 3.7 0 3.9 -3.8 10.3 -5.7 9.7 -1.7 -0.6 -9.8 3.5 -12.5 6.4 -1.2 1.3 -2.7 2.3 -3.4 2.3 -0.6 0 -1.9 1.1 -2.8 2.5 -1 1.5 -2.2 2.2 -3.1 1.9 -0.9 -0.4 -1.8 0.2 -2.4 1.7 -0.7 1.7 -1 -3.5 -1 -16.3z"/>
  <path d="M105.4 149 c-1.2 -0.5 -2.4 -2.1 -2.8 -3.7 -0.4 -1.5 -0.9 -3.6 -1.2 -4.5 -0.4 -1.2 0 -1.8 1 -1.8 0.9 0 1.6 -0.4 1.6 -0.9 0 -1.7 4.2 -2.3 6.6 -1 1.7 0.8 2.4 2.1 2.4 4.1 0 1.6 0.5 2.8 1.3 2.8 0.9 0 0.8 0.3 -0.2 0.9 -1.1 0.7 -1 1.1 0.5 2 1.1 0.6 1.4 1.1 0.9 1.1 -0.6 0 -2.1 -0.7 -3.3 -1.6 -2.9 -2 -5.6 -1.1 -4.9 1.6 0.3 1.1 0.4 2 0.4 1.9 -0.1 0 -1.2 -0.4 -2.3 -0.9z"/>
  <path d="M219 139.5 c0 -0.3 0.2 -0.5 0.5 -0.5 0.3 0 0.5 0.2 0.5 0.5 0 0.3 -0.2 0.5 -0.5 0.5 -0.3 0 -0.5 -0.2 -0.5 -0.5z"/>
  <path d="M78.7 116.3 c-1.3 -1.2 -0.7 -3.2 0.7 -2.7 1.9 0.7 2.9 3.4 1.2 3.4 -0.7 0 -1.6 -0.3 -1.9 -0.7z"/>
  <path d="M71.4 105.8 c-1.9 -2.3 -1.9 -2.3 0.4 -0.4 2.1 1.8 2.7 2.6 1.9 2.6 -0.2 0 -1.2 -1 -2.3 -2.2z"/>
  <path d="M65 100.5 c0 -0.3 0.2 -0.5 0.5 -0.5 0.3 0 0.5 0.2 0.5 0.5 0 0.3 -0.2 0.5 -0.5 0.5 -0.3 0 -0.5 -0.2 -0.5 -0.5z"/>
 </g>
 <g fill="#15a5ee">
  <path d="M241 199 c-1.3 -0.8 -1.2 -1 0.3 -1 0.9 0 1.7 0.5 1.7 1 0 1.2 -0.1 1.2 -2 0z"/>
  <path d="M150.5 196 c-1.1 -1.8 1.5 -4 4.6 -4 1.6 0 2.9 0.4 2.9 0.9 0 0.6 -1.2 0.9 -2.7 0.8 -2.2 -0.2 -2.7 0.2 -2.5 1.6 0.3 1.9 -1.3 2.3 -2.3 0.7z"/>
  <path d="M240.8 195.3 c0.7 -0.3 1.6 -0.2 1.9 0.1 0.4 0.3 -0.2 0.6 -1.3 0.5 -1.1 0 -1.4 -0.3 -0.6 -0.6z"/>
  <path d="M239.9 186.8 c0 -4 -0.3 -6.7 -0.6 -6 -0.2 0.6 -1.3 1.2 -2.3 1.2 -2.2 0 -3.9 -2.2 -2.2 -2.8 0.7 -0.2 1.2 -1 1.2 -1.7 0 -0.9 -1 -0.5 -2.5 1.1 -2.6 2.6 -2.6 2.6 -6.8 -1.2 -2.3 -2.1 -4.8 -4.4 -5.5 -5.1 -0.9 -0.8 -3.1 -1.2 -5.8 -1 -5.2 0.4 -5.4 0 -5.3 -9.6 0.1 -6.2 0.2 -6.6 0.8 -3 1.2 7.1 3.9 8.5 8.3 4.1 0.9 -0.9 2.4 -1.5 3.2 -1.2 0.7 0.3 2.2 -0.5 3.2 -1.8 1.1 -1.3 2.5 -2.3 3.2 -2.2 0.6 0.1 1.7 0.2 2.2 0.3 0.6 0 1 0.8 1 1.6 0 1.7 1.6 2 2.5 0.5 1 -1.6 3.2 0 4.5 3.1 0.8 1.8 1.1 5.4 0.7 9.2 -0.2 3.4 -0.3 5.4 0 4.5 0.2 -1 1.1 -1.8 1.9 -1.8 1.1 0 1.4 1.9 1.4 9.5 0 7.8 -0.3 9.5 -1.5 9.5 -1.2 0 -1.5 -1.5 -1.6 -7.2z"/>
  <path d="M173.3 182.3 c-1.6 -0.6 -1.7 -2.4 -0.2 -2 1.6 0.3 2.1 -1.5 0.9 -3.3 -0.8 -1.3 -1.3 -1.3 -3.7 0.2 -7.9 4.9 -9 5.2 -13.3 3.8 -2.2 -0.7 -4.5 -1.9 -5.1 -2.7 -0.8 -0.9 -3.6 -1.3 -8.5 -1.3 -5.2 0 -7.4 -0.4 -7.4 -1.2 0 -0.9 -0.4 -0.8 -1 0.2 -0.9 1.3 -1.2 1.3 -2.3 -0.1 -1.6 -2.2 -7.4 -3.4 -9.1 -2 -1.7 1.4 -6.2 1.7 -10 0.6 -2.2 -0.6 -2.7 -0.5 -2.1 0.5 0.6 0.9 0.3 1 -1.3 0.1 -2.7 -1.4 -3.2 -1.4 -3.2 0.4 0 0.9 -0.6 1.2 -1.6 0.8 -1.2 -0.4 -1.4 -1.4 -1 -3.8 0.5 -2.4 0.2 -3.4 -0.9 -3.9 -1.1 -0.4 -1.5 -2.1 -1.5 -6.3 0 -4.1 0.3 -5.4 1 -4.3 0.6 1 1 1.1 1 0.3 0 -1.8 2.7 -1.6 3.4 0.2 0.3 0.8 0.2 1.5 -0.3 1.5 -0.4 0 -0.8 0.7 -0.8 1.5 0 0.8 0.4 1.5 0.8 1.5 0.3 0 0.9 0.9 1.2 2 0.8 3 4.3 2.5 6.2 -0.8 1.3 -2.2 2.3 -2.7 4.4 -2.5 1.4 0.2 5 -0.2 7.8 -1 4.5 -1.2 5.5 -1.2 6.4 -0.1 1.7 2.1 3.2 1.7 2.6 -0.6 -0.3 -1.3 0 -2 0.9 -2 0.8 0 1.4 0.9 1.4 2 0 2.5 2.1 2.5 6.2 0.1 1.7 -1.1 3.5 -1.8 3.9 -1.5 0.4 0.2 1 -0.4 1.3 -1.4 0.8 -2.3 5.2 -4.6 6.1 -3.2 0.4 0.6 0.2 1 -0.3 1 -1.1 0 -1.3 4.8 -0.2 5.5 0.5 0.3 2.1 0 3.6 -0.5 4.3 -1.7 6.4 -0.7 13.9 6.7 5.9 5.8 7 7.3 7 10.1 0 2.6 -0.6 3.7 -2.5 4.7 -1.4 0.7 -3.1 1 -3.7 0.8z"/>
  <path d="M81.3 177.3 c0.4 -0.3 1 -0.3 1.4 0 0.3 0.4 0 0.7 -0.7 0.7 -0.7 0 -1 -0.3 -0.7 -0.7z"/>
  <path d="M51.8 171.8 c-1.3 -1.3 -2.6 -2.2 -3 -2.1 -0.3 0.1 -0.5 -2.1 -0.4 -5 0.3 -5.7 0.2 -5.7 8.4 -4.4 3.8 0.7 4.3 0.5 5.1 -1.6 1.5 -4 3.6 -5 9.6 -4.5 3.6 0.3 5.5 0.1 5.5 -0.6 0 -0.6 0.5 -0.4 1 0.4 0.8 1.3 1 1.2 1 -0.2 0 -1 0.7 -1.8 1.5 -1.8 1.2 0 1.5 1.8 1.5 9.9 0 9.9 0 9.9 -4.1 9.9 -2.3 0.1 -6.3 0.6 -9 1.3 -3.7 1 -5.4 1 -7.3 0.1 -1.6 -0.7 -2.8 -0.8 -3.1 -0.2 -1.1 1.7 -4.4 1.1 -6.7 -1.2z"/>
  <path d="M104 154.5 c0 -0.3 0.2 -0.5 0.5 -0.5 0.3 0 0.5 0.2 0.5 0.5 0 0.3 -0.2 0.5 -0.5 0.5 -0.3 0 -0.5 -0.2 -0.5 -0.5z"/>
  <path d="M78.7 116.3 c-1.5 -1.4 -0.6 -3.1 1.3 -2.6 1.1 0.3 2 1.2 2 1.9 0 1.4 -2.2 1.9 -3.3 0.7z"/>
  <path d="M76.5 111 c-0.3 -0.5 -0.1 -1 0.4 -1 0.6 0 1.1 0.5 1.1 1 0 0.6 -0.2 1 -0.4 1 -0.3 0 -0.8 -0.4 -1.1 -1z"/>
  <path d="M68.9 109.3 c-1.3 -1.6 -1.2 -1.7 0.4 -0.4 1.6 1.3 2.1 2.1 1.3 2.1 -0.2 0 -1 -0.8 -1.7 -1.7z"/>
  <path d="M75 108.5 c0 -0.3 0.2 -0.5 0.5 -0.5 0.3 0 0.5 0.2 0.5 0.5 0 0.3 -0.2 0.5 -0.5 0.5 -0.3 0 -0.5 -0.2 -0.5 -0.5z"/>
  <path d="M71.4 105.8 c-1.9 -2.3 -1.9 -2.3 0.4 -0.4 1.2 1.1 2.2 2.1 2.2 2.3 0 0.8 -0.8 0.2 -2.6 -1.9z"/>
  <path d="M69 102.5 c0 -0.3 0.2 -0.5 0.5 -0.5 0.3 0 0.5 0.2 0.5 0.5 0 0.3 -0.2 0.5 -0.5 0.5 -0.3 0 -0.5 -0.2 -0.5 -0.5z"/>
  <path d="M64.4 96.8 c-0.4 -0.7 -0.3 -0.8 0.4 -0.4 1.2 0.7 1.6 1.6 0.8 1.6 -0.3 0 -0.8 -0.5 -1.2 -1.2z"/>
  <path d="M57.4 95.8 c-0.4 -0.7 -0.3 -0.8 0.4 -0.4 1.2 0.7 1.6 1.6 0.8 1.6 -0.3 0 -0.8 -0.5 -1.2 -1.2z"/>
  <path d="M60.9 93.3 c-1.3 -1.6 -1.2 -1.7 0.4 -0.4 0.9 0.7 1.7 1.5 1.7 1.7 0 0.8 -0.8 0.3 -2.1 -1.3z"/>
  <path d="M53.4 91.5 c-1.1 -2.7 0.1 -3.3 1.9 -0.9 1.6 2.1 1.6 2.4 0.2 2.4 -0.9 0 -1.8 -0.7 -2.1 -1.5z"/>
  <path d="M56.4 88.8 c-0.4 -0.7 -0.3 -0.8 0.4 -0.4 0.7 0.4 1.2 0.9 1.2 1.2 0 0.8 -0.9 0.4 -1.6 -0.8z"/>
  <path d="M48.7 85.7 c-0.3 -0.7 -0.3 -2.6 0 -4.1 0.6 -2.8 0.6 -2.8 1.9 1 1.7 4.8 1.7 4.4 0 4.4 -0.8 0 -1.6 -0.6 -1.9 -1.3z"/>
  <path d="M52 83.5 c0 -0.3 0.2 -0.5 0.5 -0.5 0.3 0 0.5 0.2 0.5 0.5 0 0.3 -0.2 0.5 -0.5 0.5 -0.3 0 -0.5 -0.2 -0.5 -0.5z"/>
  <path d="M51 81.5 c0 -0.3 0.2 -0.5 0.5 -0.5 0.3 0 0.5 0.2 0.5 0.5 0 0.3 -0.2 0.5 -0.5 0.5 -0.3 0 -0.5 -0.2 -0.5 -0.5z"/>
  <path d="M53.6 79.5 c-1.6 -1.2 -1.7 -1.5 -0.4 -1.5 0.9 0 1.8 0.7 2.2 1.5 0.7 1.8 0.6 1.8 -1.8 0z"/>
 </g>
 <g fill="#09baee">
  <path d="M141 155.5 c0 -0.3 0.2 -0.5 0.5 -0.5 0.3 0 0.5 0.2 0.5 0.5 0 0.3 -0.2 0.5 -0.5 0.5 -0.3 0 -0.5 -0.2 -0.5 -0.5z"/>
  <path d="M131.8 151.3 c0.7 -0.3 1.6 -0.2 1.9 0.1 0.4 0.3 -0.2 0.6 -1.3 0.5 -1.1 0 -1.4 -0.3 -0.6 -0.6z"/>
  <path d="M167 145.5 c0 -0.3 0.2 -0.5 0.5 -0.5 0.3 0 0.5 0.2 0.5 0.5 0 0.3 -0.2 0.5 -0.5 0.5 -0.3 0 -0.5 -0.2 -0.5 -0.5z"/>
  <path d="M187 145.2 c0 -0.4 -1.6 -0.8 -3.7 -0.9 -4.3 -0.2 -5.4 -1.6 -4 -4.7 1.4 -2.9 8.6 -7.1 9.8 -5.9 0.5 0.5 1.2 3.2 1.5 6 0.6 4.5 0.4 5.1 -1.5 5.6 -1.1 0.3 -2.1 0.2 -2.1 -0.1z"/>
  <path d="M102.8 141.9 c-1.3 -0.7 -1.8 -2.3 -1.8 -5.4 0 -2.5 0.4 -4.5 0.8 -4.5 0.4 0 3.2 1.5 6.1 3.4 5.3 3.3 5.3 3.3 2.2 3.9 -1.8 0.4 -3.1 1.3 -3.1 2.2 0 1.7 -1.7 1.9 -4.2 0.4z"/>
  <path d="M173.3 141.3 c0.4 -0.3 1 -0.3 1.4 0 0.3 0.4 0 0.7 -0.7 0.7 -0.7 0 -1 -0.3 -0.7 -0.7z"/>
  <path d="M239.9 137.8 c-0.1 -1.3 -0.1 -2.7 0.1 -3.3 0.1 -0.5 -0.7 -0.1 -1.8 0.8 -1.1 1 -3.1 2 -4.6 2.3 -3.2 0.5 -7.6 -2.1 -7.6 -4.7 0 -1 -0.5 -2.1 -1.2 -2.5 -0.7 -0.5 -0.8 -0.3 -0.2 0.7 0.5 0.9 -0.1 0.8 -1.9 -0.4 -1.6 -1 -3.6 -1.6 -4.5 -1.3 -1.2 0.3 -2.7 -0.9 -4.9 -3.9 -2.8 -3.7 -3.3 -5.3 -3.3 -10 0 -5.4 0 -5.5 2.9 -5.5 2.1 0 3.2 0.6 3.6 2 0.3 1.1 1 2 1.5 2 0.5 0 1.2 -0.9 1.5 -2 0.5 -1.6 1.5 -2 4.7 -2 3.8 0 9.8 2.6 9.8 4.2 0 0.4 1.7 1.1 3.9 1.4 3.5 0.6 3.9 0.9 4.5 4.3 0.3 2 0.6 7.3 0.6 11.9 0 6.6 -0.3 8.2 -1.5 8.2 -0.9 0 -1.6 -1 -1.6 -2.2z m-8.9 -1.3 c0 -0.3 -0.2 -0.5 -0.5 -0.5 -0.3 0 -0.5 0.2 -0.5 0.5 0 0.3 0.2 0.5 0.5 0.5 0.3 0 0.5 -0.2 0.5 -0.5z m-8.3 -8.2 c-0.4 -0.3 -0.7 0 -0.7 0.7 0 0.7 0.3 1 0.7 0.7 0.3 -0.4 0.3 -1 0 -1.4z"/>
  <path d="M51.7 134.3 c-0.3 -1 -0.8 -3.6 -1.2 -5.7 -0.4 -2.7 -0.9 -3.5 -1.5 -2.6 -0.4 0.7 -0.9 -4.7 -0.9 -12.4 -0.2 -13.1 -0.1 -13.6 1.9 -13.6 2.6 0 2.6 -2.7 -0.1 -7.8 -1.8 -3.3 -2 -4.9 -1.4 -8.8 0.7 -4.9 0.7 -4.9 2 -1.1 0.7 2 2.4 5.2 3.7 7 1.4 1.7 3.6 5.6 4.9 8.5 1.3 2.8 2.7 5.2 3.1 5.2 1 0 10.8 9.6 10.9 10.7 0.1 1 0.6 3 1.5 6 0.5 1.8 0.1 2.5 -2.2 3.5 -3.9 1.6 -6.4 3.8 -6.4 5.5 0 2.8 -2.8 4.4 -6.4 3.8 -2.8 -0.6 -3.7 -0.3 -4.8 1.4 -1.6 2.6 -2.5 2.7 -3.1 0.4z m-0.7 -13.9 c0 -1.3 -0.4 -2.4 -1 -2.4 -0.5 0 -1 1.4 -1 3.1 0 1.7 0.4 2.8 1 2.4 0.6 -0.3 1 -1.7 1 -3.1z"/>
  <path d="M153 124.9 c0 -5.1 1.9 -7 7.5 -7.7 4.6 -0.5 7.5 0.8 7.5 3.4 0 1.5 -11 8.4 -13.4 8.4 -1.2 0 -1.6 -1 -1.6 -4.1z"/>
  <path d="M125.8 123.3 c-4.3 -2.5 -7.8 -5.2 -7.8 -5.9 0 -2.2 8.9 -1.8 12.8 0.6 2.7 1.7 3.2 2.5 3.2 6 0 2.2 -0.1 4 -0.2 3.9 -0.2 0 -3.8 -2.1 -8 -4.6z"/>
  <path d="M102.3 108.8 c-1.9 -1.1 -3.3 -2.8 -3.3 -3.9 0 -1.7 0.6 -2 4.3 -1.7 4.1 0.3 4.2 0.4 4.5 4.1 0.4 4.3 -0.6 4.6 -5.5 1.5z"/>
  <path d="M51.1 78.1 c-1 -0.6 -1 -1 -0.1 -1.6 1.3 -0.8 2.4 -0.1 1.9 1.4 -0.3 0.6 -1 0.7 -1.8 0.2z"/>
 </g>
 <g fill="#10c2ee">
  <path d="M101 136.4 c0 -2.4 0.3 -4.4 0.7 -4.4 0.3 0 2.7 1.2 5.2 2.8 4.6 2.7 4.6 2.7 1.4 3 -1.8 0.2 -3.3 0.7 -3.3 1.1 0 0.5 -0.9 1.1 -2 1.4 -1.8 0.5 -2 0 -2 -3.9z m3 0.4 c0 -1.6 -0.3 -1.9 -1.1 -1.1 -0.6 0.6 -0.8 1.6 -0.5 2.2 1.1 1.7 1.6 1.3 1.6 -1.1z"/>
  <path d="M187 139 c0 -1 -0.7 -2.3 -1.6 -2.8 -1.4 -0.8 -1.4 -1.1 -0.3 -1.7 0.8 -0.5 2.4 -1.5 3.7 -2.3 2.2 -1.4 2.2 -1.4 2.2 3.7 0 4.4 -0.3 5.1 -2 5.1 -1.3 0 -2 -0.7 -2 -2z"/>
  <path d="M182 136.5 c0 -0.3 0.2 -0.5 0.5 -0.5 0.3 0 0.5 0.2 0.5 0.5 0 0.3 -0.2 0.5 -0.5 0.5 -0.3 0 -0.5 -0.2 -0.5 -0.5z"/>
  <path d="M137.3 130.2 c-3.9 -2.3 -6.3 -4.4 -6.3 -5.5 0 -2.3 -5.9 -5.9 -8.9 -5.3 -2.8 0.4 -17.6 -8.7 -17.6 -10.9 0 -2.1 -1.5 -3.1 -2.4 -1.6 -0.7 1 -1.8 0.8 -5.5 -1.4 -6.2 -3.6 -5.9 -5.2 0.8 -6 7.2 -0.9 11.8 0.7 14.8 5 1.8 2.8 3 3.5 5.5 3.5 1.7 0 3.4 0.4 3.7 0.9 0.3 0.5 1.5 1.1 2.6 1.4 1.4 0.4 2.3 -0.2 3.2 -2.1 1.1 -2.3 2.1 -2.7 6.2 -3 2.7 -0.2 7.6 0.2 11 0.7 3.3 0.6 8.8 1.6 12.1 2.2 3.3 0.5 6.3 1.7 6.8 2.5 0.4 0.7 1.7 1.4 2.7 1.4 1.1 0 2.5 1 3.2 2.3 1.2 2.2 1.2 2.2 1.8 -0.3 0.5 -2.2 1.2 -2.5 5.3 -2.8 7 -0.5 6.1 1.8 -2.9 7.3 -7.4 4.4 -7.7 4.5 -9.6 2.8 -1.6 -1.5 -2.1 -1.5 -2.8 -0.3 -0.5 0.8 -1.2 1.1 -1.6 0.8 -0.8 -0.8 -3.4 1.6 -3.4 3.1 0 0.6 0.7 1.1 1.5 1.1 0.8 0 1.5 0.3 1.5 0.8 0 1.1 -11.5 7.2 -13.6 7.2 -1.1 0 -4.7 -1.7 -8.1 -3.8z"/>
  <path d="M239.5 124.3 c-0.6 -5 -0.9 -5.5 -2 -4 -1.7 2.3 -3.5 2.2 -3.5 -0.3 0 -1.1 -0.5 -2 -1 -2 -0.6 0 -2 -0.8 -3 -1.8 -2.4 -2.2 -8.5 -1.8 -7.6 0.4 0.7 1.8 -4 3 -5.8 1.5 -0.7 -0.6 -1.6 -0.8 -1.9 -0.4 -0.4 0.3 -0.7 0 -0.7 -0.8 0 -0.8 -0.5 -2.1 -1 -2.9 -0.9 -1.3 -1.1 -1.3 -2 0 -0.7 1 -1 -1.1 -1 -7.2 0 -4.8 -0.4 -8.9 -0.9 -9.3 -0.6 -0.3 -6.4 2.8 -13 7 -6.6 4.1 -12.5 7.5 -13 7.5 -0.6 0 -1.1 -2 -1.1 -4.5 0 -4.2 0.2 -4.6 3.6 -6 2 -0.8 5.6 -1.5 8 -1.5 3.9 0 4.3 -0.2 4.6 -2.7 0.2 -2.3 0.8 -2.9 3.6 -3.1 1.7 -0.2 3.2 -0.7 3.2 -1.3 0 -0.5 1.2 -0.9 2.8 -0.9 1.5 0 3.6 -0.7 4.6 -1.5 3.5 -2.6 9.2 -1.9 12.4 1.5 1.6 1.7 3.4 3 4 3 0.6 0 1.3 0.6 1.5 1.3 0.4 0.9 0.7 0.9 1.4 -0.1 0.5 -0.7 3.3 -1.5 6.1 -1.9 5.2 -0.6 5.2 -0.6 5.2 17.6 0 14.7 -0.3 18.1 -1.4 18.1 -0.9 0 -1.6 -1.9 -2.1 -5.7z m-15.5 -10.8 c0 -0.3 -0.2 -0.5 -0.5 -0.5 -0.3 0 -0.5 0.2 -0.5 0.5 0 0.3 0.2 0.5 0.5 0.5 0.3 0 0.5 -0.2 0.5 -0.5z m2 0 c0 -0.3 -0.2 -0.5 -0.5 -0.5 -0.3 0 -0.5 0.2 -0.5 0.5 0 0.3 0.2 0.5 0.5 0.5 0.3 0 0.5 -0.2 0.5 -0.5z"/>
  <path d="M159.7 125.3 c-1.4 -1.3 -0.6 -2.3 1.8 -2.3 2.8 0 3.4 1.5 0.9 2.4 -1.9 0.7 -1.9 0.7 -2.7 -0.1z"/>
  <path d="M52.5 109 c0.7 -2.1 -1.8 -5.5 -3.4 -4.6 -1.2 0.8 -1.4 -20.5 -0.1 -22.4 0.7 -1.1 1 -1.2 1 -0.2 0 1.8 2.8 8 5.3 11.5 1.6 2.4 1.7 3.2 0.7 5.7 -0.7 1.6 -0.9 3.4 -0.5 4 1 1.6 -0.4 6.8 -2.1 7.4 -1.2 0.4 -1.4 0.1 -0.9 -1.4z"/>
  <path d="M78.8 95.2 c-3.9 -2.3 -3.6 -4.2 0.7 -4.2 3.2 0 3.5 0.2 3.5 3 0 3.4 -0.5 3.6 -4.2 1.2z"/>
  <path d="M51.2 78.2 c-0.9 -0.7 -0.8 -1.3 0.8 -2.7 2 -1.8 2 -1.8 2 0.8 0 2.8 -0.6 3.2 -2.8 1.9z"/>
 </g>
 <g fill="#0dc8ef">
  <path d="M108.3 136.3 c0.4 -0.3 1 -0.3 1.4 0 0.3 0.4 0 0.7 -0.7 0.7 -0.7 0 -1 -0.3 -0.7 -0.7z"/>
  <path d="M101 133.6 c0 -0.9 0.5 -1.6 1 -1.6 0.6 0 1 0.4 1 0.9 0 0.6 -0.4 1.3 -1 1.6 -0.5 0.3 -1 -0.1 -1 -0.9z"/>
  <path d="M187 133.5 c0 -0.3 0.2 -0.5 0.5 -0.5 0.3 0 0.5 0.2 0.5 0.5 0 0.3 -0.2 0.5 -0.5 0.5 -0.3 0 -0.5 -0.2 -0.5 -0.5z"/>
  <path d="M168.4 119 c-1.2 -0.4 -2.4 -1.5 -2.7 -2.4 -0.4 -0.9 -1.3 -1.3 -2.1 -1 -0.7 0.3 -2 -0.4 -2.8 -1.5 -0.9 -1.3 -3 -2.2 -6 -2.5 -2.6 -0.3 -5.7 -1 -7 -1.4 -1.3 -0.4 -3.8 -0.8 -5.5 -0.7 -1.8 0.1 -3.3 -0.1 -3.3 -0.5 0 -0.3 -1.7 -0.6 -3.7 -0.5 -3.3 0 -4 0.4 -5.3 3.3 -1.3 3 -1.8 3.3 -4.3 2.8 -1.6 -0.3 -4.4 -1.3 -6.3 -2.2 -2 -1 -4.4 -1.4 -5.9 -1 -1.7 0.4 -2.5 0.2 -2.5 -0.6 -0.1 -2.1 -4.3 -6.6 -7.1 -7.7 -1.6 -0.5 -4.1 -0.6 -6.3 -0.1 -3.3 0.7 -4.5 0.4 -10.7 -3.2 -3.8 -2.2 -6.9 -4.3 -6.9 -4.7 0 -0.4 -0.6 -0.8 -1.3 -0.8 -2.7 0 -14.7 -7.7 -14.7 -9.5 0 -3.8 12.2 -0.9 13.5 3.2 0.3 1.1 1.5 2 2.5 2 2.4 0 6.8 1.9 9.9 4.2 2.5 1.9 8.1 2.4 9.7 0.9 0.5 -0.5 7.8 -1.3 16.2 -1.7 13.7 -0.6 15.2 -0.5 15.2 1 0 1.8 1.6 2.2 2.2 0.5 0.2 -0.7 3.5 -0.7 10.8 0 15.6 1.5 19.6 2.4 22.6 5.4 1.5 1.5 3.5 2.7 4.5 2.7 1.2 0 1.9 0.7 1.9 2 0 1.7 0.4 1.9 2.8 1.4 1.5 -0.4 3.9 -2 5.4 -3.5 1.5 -1.6 3.3 -2.9 4 -2.9 2.2 0 12.2 -5 13.1 -6.5 0.4 -0.8 2.9 -1.7 5.5 -2 4.3 -0.6 8.9 -2.6 21.2 -9.1 4.4 -2.4 9 -2.9 14.9 -1.8 3.1 0.7 3.1 0.7 3.1 17.5 0 14.4 -0.2 16.9 -1.5 16.9 -1.2 0 -1.5 -1.7 -1.5 -8.9 0 -8.8 0 -8.8 -2.6 -8.3 -1.9 0.3 -2.4 0.9 -2.1 2.3 0.3 1.1 0.1 1.9 -0.4 1.9 -0.5 0 -0.9 -0.4 -0.9 -1 0 -0.5 -0.7 -1 -1.5 -1 -0.8 0 -1.5 0.7 -1.5 1.6 0 1.4 -0.3 1.4 -1.5 0.4 -1.3 -1 -1.9 -0.9 -3.7 0.6 -1.2 1.1 -1.8 1.3 -1.4 0.6 0.4 -0.7 0.4 -2.7 0 -4.5 -0.6 -2.8 -0.8 -3 -1.5 -1.2 -0.8 2 -0.8 2 -0.9 0 0 -1.1 -0.7 -2.9 -1.6 -4 -1.4 -1.9 -1.6 -1.9 -4.5 -0.2 -1.7 0.9 -4.1 1.7 -5.4 1.7 -1.3 0 -2.5 0.5 -2.7 1.2 -0.3 0.7 -1.8 1.2 -3.4 1.3 -2 0 -2.9 0.5 -2.9 1.7 0 2.4 -3.6 4.7 -6.5 4.2 -1.4 -0.3 -4.2 0.2 -6.3 1.1 -3.4 1.4 -3.8 1.9 -3.3 4 0.5 2 0 2.7 -2.6 4.2 -1.8 1 -4.4 1.8 -5.8 1.8 -1.6 0 -2.4 0.5 -2.2 1.4 0.1 0.7 -0.5 1.9 -1.5 2.7 -2.1 1.5 -2.1 1.6 -4.9 0.4z m58.6 -20.5 c0 -0.3 -0.2 -0.5 -0.5 -0.5 -0.3 0 -0.5 0.2 -0.5 0.5 0 0.3 0.2 0.5 0.5 0.5 0.3 0 0.5 -0.2 0.5 -0.5z"/>
  <path d="M52 101.5 c0 -0.3 0.2 -0.5 0.5 -0.5 0.3 0 0.5 0.2 0.5 0.5 0 0.3 -0.2 0.5 -0.5 0.5 -0.3 0 -0.5 -0.2 -0.5 -0.5z"/>
  <path d="M52 97.5 c0 -0.3 0.2 -0.5 0.5 -0.5 0.3 0 0.5 0.2 0.5 0.5 0 0.3 -0.2 0.5 -0.5 0.5 -0.3 0 -0.5 -0.2 -0.5 -0.5z"/>
  <path d="M48 85.9 c0 -1.7 0.4 -2.8 1 -2.4 0.6 0.3 1 1.7 1 3.1 0 1.3 -0.4 2.4 -1 2.4 -0.5 0 -1 -1.4 -1 -3.1z"/>
  <path d="M53.1 79.1 c-2.6 -2 -2.1 -4.1 1 -4.1 1.4 0 1.9 0.7 1.9 3 0 3.5 0.2 3.5 -2.9 1.1z"/>
 </g>
 <g fill="#0ecfef">
  <path d="M101 133 c0 -0.5 0.5 -1 1.1 -1 0.5 0 0.7 0.5 0.4 1 -0.3 0.6 -0.8 1 -1.1 1 -0.2 0 -0.4 -0.4 -0.4 -1z"/>
  <path d="M171 113.5 c0 -0.3 0.2 -0.5 0.5 -0.5 0.3 0 0.5 0.2 0.5 0.5 0 0.3 -0.2 0.5 -0.5 0.5 -0.3 0 -0.5 -0.2 -0.5 -0.5z"/>
  <path d="M171.8 110.6 c-1 -0.7 -1.8 -2 -1.8 -2.8 0 -1.1 -0.7 -1.4 -2.5 -1 -1.4 0.2 -2.5 0 -2.3 -0.4 0.2 -0.5 -0.7 -2 -1.9 -3.4 -2 -2.1 -4.1 -2.7 -11 -3.2 -0.7 -0.1 -1.3 -0.4 -1.3 -0.8 0 -1 -17.1 0.3 -19 1.5 -0.5 0.3 -1 0.1 -1 -0.6 0 -0.6 -0.8 -0.9 -1.9 -0.6 -1.1 0.3 -2.8 -0.3 -4 -1.4 -1.4 -1.3 -2.1 -1.5 -2.4 -0.6 -0.3 0.9 -0.9 0.9 -2.6 -0.1 -1.2 -0.7 -2.6 -1 -3.2 -0.7 -0.5 0.4 -3.9 0.8 -7.5 0.9 -3.6 0.2 -6.8 0.6 -7.1 1 -0.4 0.3 -1.8 0.6 -3.3 0.6 -1.4 0 -3.1 0.5 -3.7 1.1 -0.8 0.8 -2.3 0.4 -5.3 -1.3 -2.3 -1.3 -5.7 -3.1 -7.4 -4 -1.7 -0.9 -3.9 -1.5 -4.8 -1.2 -1.1 0.3 -2.2 -0.4 -3.1 -2.3 -1.5 -2.7 -7.3 -5.9 -7.9 -4.2 -0.2 0.4 -2.6 -0.6 -5.3 -2.4 -7.5 -4.7 -10.7 -7.5 -10.1 -8.6 0.7 -1.1 13.9 -9.9 16.1 -10.8 3 -1.1 1.5 4.1 -2.2 7.9 -3.7 3.8 -3.7 3.8 1.7 3.9 8 0.3 12.5 -0.2 12.8 -1.2 0.6 -1.4 9 -1.1 9.5 0.4 0.3 0.9 0.9 0.9 2.6 -0.1 2.4 -1.4 8.3 -1.6 9.7 -0.3 0.5 0.5 6.4 1.1 13.1 1.3 6.8 0.2 12.7 0.9 13.5 1.5 0.7 0.6 3.1 1.4 5.3 1.8 2.2 0.4 5.6 1.4 7.5 2.3 4.4 2 26 3.1 26 1.3 0 -1.5 6.7 -1.4 7.2 0.1 0.2 0.6 3 1.3 6.2 1.6 4.5 0.4 6 0.9 6.3 2.2 0.3 1 1.3 2 2.4 2.3 1.1 0.3 1.9 1.4 1.9 2.6 0 2.9 3.1 2.7 6 -0.4 1.8 -1.9 3.4 -2.5 6.5 -2.5 3 0 7.2 -1.5 15.3 -5.5 6.2 -3 11.6 -5.5 12.1 -5.5 0.5 0 1.4 -0.7 2.1 -1.5 1.5 -1.8 6.4 -2 7.8 -0.2 0.6 0.6 1.3 2.4 1.7 4 0.6 2.1 0.4 2.7 -0.9 2.7 -0.9 0 -1.9 0.7 -2.2 1.5 -0.9 2.2 -3.4 1.8 -3.4 -0.5 0 -2.7 -2.5 -2.6 -8 0.4 -12.3 6.5 -16.9 8.5 -21.2 9.1 -2.6 0.3 -5.1 1.2 -5.5 1.9 -0.9 1.5 -7.2 4.8 -12.5 6.5 -2 0.7 -4.4 2.3 -5.2 3.7 -0.9 1.3 -2.5 2.4 -3.5 2.4 -1 0 -2.1 0.7 -2.5 1.5 -0.7 1.8 -3.5 1.9 -5.8 0.1z m-44.1 -13.8 c-0.3 -0.8 -0.6 -0.5 -0.6 0.6 -0.1 1.1 0.2 1.7 0.5 1.3 0.3 -0.3 0.4 -1.2 0.1 -1.9z m10 0.5 c-0.4 -0.3 -1 -0.3 -1.4 0 -0.3 0.4 0 0.7 0.7 0.7 0.7 0 1 -0.3 0.7 -0.7z"/>
 </g>
 <g fill="#0dd6f0">
  <path d="M188 98 c0 -1.1 -0.4 -2 -1 -2 -0.5 0 -1 -0.5 -1 -1.1 0 -0.5 0.5 -0.7 1.2 -0.3 0.6 0.4 0.8 0.3 0.4 -0.4 -0.3 -0.6 -1.6 -0.9 -2.7 -0.7 -1.6 0.3 -1.9 0 -1.4 -1.5 0.3 -1 0 -2.2 -0.6 -2.6 -0.7 -0.4 -0.9 -0.3 -0.6 0.3 0.8 1.2 -2.8 2.4 -4.9 1.6 -0.8 -0.3 -1.2 -0.9 -0.9 -1.4 0.8 -1.2 -4.4 -1.8 -20.5 -2.3 -15.6 -0.4 -17.1 -0.6 -19.1 -2.3 -0.8 -0.6 -3.5 -1.4 -6.1 -1.7 -2.6 -0.4 -5 -1.1 -5.3 -1.6 -0.3 -0.5 -1.2 -0.7 -2 -0.3 -0.9 0.3 -2.2 0 -3 -0.7 -1.5 -1.2 -15.2 -0.9 -19.2 0.5 -1.8 0.5 -2.3 0.4 -2.3 -0.8 0 -2.4 -1.5 -2.8 -4.6 -1.2 -1.6 0.8 -3.7 1.5 -4.6 1.5 -0.9 0 -1.9 0.4 -2.2 0.9 -0.7 1 -5.6 2.1 -5.6 1.2 0 -1 -4.5 -2.8 -5.8 -2.3 -0.7 0.2 -1.2 1.1 -1.3 2 0 1.4 -0.2 1.3 -0.9 -0.3 -0.5 -1.1 -0.9 -1.4 -0.9 -0.7 -0.1 0.8 -1 1.2 -2.4 1 -1.2 -0.2 -2.1 -0.8 -2 -1.4 0.1 -0.5 -0.9 -1.1 -2.3 -1.2 -1.3 -0.1 -2.4 0.2 -2.4 0.6 0 0.5 -0.6 0.9 -1.2 0.9 -0.7 0 -2.1 0.4 -3 0.8 -1.2 0.5 -2 0.2 -2.4 -0.9 -0.3 -0.9 -1 -1.3 -1.5 -1 -0.5 0.3 -0.9 0 -0.9 -0.7 0 -0.6 -0.8 -1.8 -1.7 -2.5 -1.5 -1 -1.6 -1.5 -0.6 -2.5 1 -1 1.3 -1 1.3 -0.1 0 2.4 2.7 1.1 7.5 -3.9 5.8 -5.9 11.3 -9.5 12.5 -8.3 0.4 0.5 1 1.7 1.2 2.6 0.3 1.5 0.7 1.5 4.3 0.2 5.4 -1.8 9.5 -1.8 9.5 0.1 0 1.7 2.5 2 3.5 0.5 0.4 -0.6 5.4 -1 11.7 -1 8.7 0 11.5 0.3 12.9 1.6 2.5 2.2 11.6 3.2 26.7 2.8 9.1 -0.3 13.2 -0.1 13.2 0.7 0 0.7 1.6 0.9 4.8 0.5 7.4 -0.9 29.7 1.7 32 3.7 1.4 1.3 3.7 1.8 8.3 1.8 8.7 0 12.9 0.8 12.9 2.5 0 0.8 0.9 1.4 1.9 1.4 1 0 2.1 0.7 2.4 1.5 0.5 1.2 1.6 1 6.4 -1.1 3.2 -1.4 6.5 -3.2 7.4 -4 2.3 -2 6.2 -1.7 7.7 0.6 1.1 1.8 1 2 -1.2 2 -1.3 0 -2.9 0.7 -3.6 1.5 -0.7 0.8 -1.7 1.5 -2.2 1.5 -0.5 0 -6.2 2.6 -12.7 5.9 -9.2 4.5 -12.5 5.7 -15 5.3 -2.6 -0.3 -3.8 0.1 -6.2 2.4 -2.1 2 -4 2.8 -6.4 2.8 -1.9 0 -3.5 0.4 -3.5 0.8 0 0.4 -0.4 0.8 -1 0.8 -0.5 0 -1 -0.9 -1 -2z m-17 -11.5 c0 -0.3 -0.2 -0.5 -0.5 -0.5 -0.3 0 -0.5 0.2 -0.5 0.5 0 0.3 0.2 0.5 0.5 0.5 0.3 0 0.5 -0.2 0.5 -0.5z m-85 -7.5 c0 -0.5 -0.7 -1 -1.5 -1 -0.8 0 -1.5 0.5 -1.5 1 0 0.6 0.7 1 1.5 1 0.8 0 1.5 -0.4 1.5 -1z"/>
  <path d="M86 92.1 c0 -0.5 0.7 -1.1 1.5 -1.5 0.9 -0.3 1.5 0 1.5 0.9 0 0.8 -0.7 1.5 -1.5 1.5 -0.8 0 -1.5 -0.4 -1.5 -0.9z"/>
  <path d="M174 90.5 c0 -0.3 0.2 -0.5 0.5 -0.5 0.3 0 0.5 0.2 0.5 0.5 0 0.3 -0.2 0.5 -0.5 0.5 -0.3 0 -0.5 -0.2 -0.5 -0.5z"/>
  <path d="M78 83.5 c0 -0.3 0.2 -0.5 0.5 -0.5 0.3 0 0.5 0.2 0.5 0.5 0 0.3 -0.2 0.5 -0.5 0.5 -0.3 0 -0.5 -0.2 -0.5 -0.5z"/>
 </g>
 <g fill="#0dddf1">
  <path d="M218.3 86 c-1.3 -0.5 -2.3 -1.4 -2.3 -2 0 -0.6 -0.5 -0.8 -1 -0.5 -1.3 0.8 -4.2 -1.4 -3.5 -2.5 0.3 -0.4 -0.6 -1 -2 -1.2 -1.7 -0.4 -2.5 -0.1 -2.5 0.9 0 0.8 -0.4 1.2 -0.9 0.9 -0.5 -0.4 -1.2 0 -1.4 0.6 -0.4 0.8 -0.6 0.7 -0.6 -0.3 -0.1 -1.8 -5.7 -3.4 -8.2 -2.4 -0.8 0.3 -2.9 -0.5 -4.6 -1.8 -2.5 -1.8 -4.2 -2.2 -9.2 -2.1 -3.9 0.1 -5.9 -0.2 -5.5 -0.8 0.4 -0.6 -0.1 -0.8 -1.4 -0.4 -1.2 0.4 -3.8 0.3 -5.8 -0.3 -2.7 -0.7 -4.2 -0.7 -5.1 0 -0.7 0.6 -2.4 0.8 -3.9 0.5 -1.5 -0.4 -2.3 -0.3 -2 0.3 0.3 0.5 -0.3 0.7 -1.5 0.4 -1.1 -0.3 -2.3 -1.2 -2.6 -1.9 -0.4 -1 -0.9 -1 -2.3 -0.2 -1.4 0.9 -2.8 0.9 -5.7 0 -2.1 -0.6 -6.5 -0.8 -9.8 -0.5 -7.6 0.6 -20.2 -1.1 -22.4 -3.1 -2.1 -1.9 -17 -2.3 -18.8 -0.5 -1.3 1.3 -8.6 1.4 -10.5 0.2 -1.5 -0.9 -4.8 -0.5 -6.3 0.7 -0.6 0.5 -2.4 0.5 -4 0.2 -2.1 -0.5 -3 -1.3 -3 -2.7 0 -1.5 -0.6 -1.9 -2.4 -1.7 -3.1 0.3 -3.9 0.9 11.4 -8.7 12.4 -7.8 13 -8.1 13.3 -5.8 0.4 3.5 6.2 5.2 15.2 4.3 7.6 -0.7 20 0.8 21.1 2.5 0.4 0.7 3 0.8 7.1 0.4 5 -0.5 6.8 -0.4 7.9 0.7 1.1 1.2 5.9 1.6 21.3 2.1 12.1 0.3 20.3 1 20.9 1.6 0.6 0.6 2.3 1.1 3.8 1.1 1.5 0 2.9 0.5 3.1 1 0.4 1.3 13.9 6.1 15.1 5.3 0.5 -0.3 3.7 -0.2 7.3 0.2 4.5 0.5 6.4 1.1 6.4 2.1 0 0.8 0.5 1.4 1 1.4 0.6 0 1 0.5 1 1.1 0 0.6 0.7 1.7 1.5 2.5 1.3 1.3 1.9 1.2 5.2 -1 4.8 -3.3 6.6 -3.3 8.8 0 1.7 2.7 1.7 2.7 -0.8 2 -1.4 -0.3 -2.9 -0.1 -3.2 0.4 -0.6 0.9 -14.8 8.1 -15.7 7.9 -0.1 0 -1.3 -0.4 -2.5 -0.9z m-132.3 -18.5 c0 -0.3 -0.2 -0.5 -0.5 -0.5 -0.3 0 -0.5 0.2 -0.5 0.5 0 0.3 0.2 0.5 0.5 0.5 0.3 0 0.5 -0.2 0.5 -0.5z"/>
  <path d="M73 71.5 c0 -0.3 0.2 -0.5 0.5 -0.5 0.3 0 0.5 0.2 0.5 0.5 0 0.3 -0.2 0.5 -0.5 0.5 -0.3 0 -0.5 -0.2 -0.5 -0.5z"/>
 </g>
 <g fill="#0de3f1">
  <path d="M224 81.6 c0 -0.9 -0.4 -1.6 -1 -1.6 -0.5 0 -1 -0.7 -1 -1.5 0 -0.8 -0.4 -1.5 -1 -1.5 -0.5 0 -1 -0.6 -1 -1.4 0 -0.9 -1 -1.3 -3 -1.2 -1.6 0.1 -3.1 -0.2 -3.3 -0.7 -0.1 -0.4 -1.4 -0.4 -2.7 0.1 -2 0.8 -4.5 0.3 -11 -1.9 -4.7 -1.5 -8.6 -3.3 -8.8 -3.8 -0.2 -0.6 -1.7 -1.1 -3.2 -1.1 -1.6 0 -3.1 -0.4 -3.4 -0.8 -0.3 -0.5 -2.6 -0.7 -5.2 -0.5 -2.5 0.2 -5.1 0 -5.8 -0.5 -1.4 -1 -12.4 -0.8 -15 0.3 -1.1 0.5 -2.6 0.4 -3.5 -0.2 -1 -0.7 -2.4 -0.7 -3.3 -0.2 -1.6 0.9 -7.8 -0.8 -9 -2.5 -0.6 -0.9 -4.4 -0.9 -13.4 -0.2 -2.2 0.1 -3 -0.2 -2.7 -1 0.6 -1.7 -5.6 -2.5 -19.9 -2.9 -14 -0.3 -15.4 -0.5 -17.2 -3 -0.8 -1.1 -1.8 -1.7 -2.2 -1.3 -0.4 0.4 -0.1 1.4 0.6 2.3 0.7 0.8 0.9 1.5 0.4 1.6 -0.5 0 -3.1 0.3 -5.9 0.5 -5 0.4 -5 0.4 -0.5 -2.2 2.5 -1.5 5.2 -3.3 6.1 -4.1 1.4 -1.2 1.8 -1.2 2.2 -0.1 0.4 1 0.6 0.9 0.6 -0.2 0.1 -2 15.1 -11.4 15.1 -9.5 0 1.2 1.4 1.5 6 1.5 4.7 0 6 -0.3 6 -1.5 0 -1 -1.1 -1.5 -3.5 -1.5 -5.1 0 -4.5 -2.3 1.8 -6.3 13.5 -8.5 12.7 -8.2 12.7 -4.8 0 2.7 -0.7 3.6 -5 6.2 -2.7 1.7 -5 3.3 -5 3.6 0 0.3 4 0.3 9 -0.1 6 -0.4 9 -0.3 9 0.4 0 0.5 1.3 1 2.9 1 1.6 0 3.1 0.6 3.5 1.5 0.4 1.2 2.3 1.5 8.5 1.5 5 0 8.9 0.5 10.7 1.5 1.9 0.9 5.7 1.5 10.7 1.5 4.4 0 7.7 0.4 7.7 1 0 0.6 0.5 1 1 1 0.6 0 1 -0.7 1 -1.5 0 -0.8 0.7 -1.5 1.5 -1.5 0.8 0 1.5 -0.9 1.5 -2 0 -1.1 0.2 -2 0.5 -2 0.2 0 3.8 2.1 8 4.6 7 4.4 9.5 7.4 6 7.4 -0.8 0 -1.5 0.5 -1.5 1 0 0.6 0.8 1 1.8 1 1.1 0 2.9 0.9 4.2 2 1.3 1.1 3.1 2 4.2 2 1 0 1.8 0.7 1.8 1.5 0 1.8 5.6 2.1 6.2 0.3 0.5 -1.5 20.7 11.2 22.8 14.3 1.4 2.1 1.4 2.2 -0.1 1.7 -1 -0.4 -3.2 0.4 -5.3 1.8 -4.8 3.3 -10.6 4.4 -10.6 2z"/>
  <path d="M70 63.6 c0 -0.2 0.7 -0.7 1.6 -1 0.8 -0.3 1.2 -0.2 0.9 0.4 -0.6 1 -2.5 1.4 -2.5 0.6z"/>
  <path d="M74.5 61 c0.3 -0.5 0.8 -1 1.1 -1 0.3 0 0.2 0.5 -0.1 1 -0.3 0.6 -0.8 1 -1.1 1 -0.3 0 -0.2 -0.4 0.1 -1z"/>
  <path d="M160.4 31.5 c-0.4 -0.8 -1.2 -1.5 -2 -1.5 -0.9 0 -1.4 -1.1 -1.4 -3.1 0 -3.1 0 -3.1 4.8 -0.3 7.6 4.4 8.2 4.8 8.2 5.6 0 0.5 -2 0.8 -4.5 0.8 -3.1 0 -4.7 -0.5 -5.1 -1.5z"/>
 </g>
 <g fill="#0ff0f3">
  <path d="M234 77.5 c0 -0.3 0.2 -0.5 0.5 -0.5 0.3 0 0.5 0.2 0.5 0.5 0 0.3 -0.2 0.5 -0.5 0.5 -0.3 0 -0.5 -0.2 -0.5 -0.5z"/>
  <path d="M215 67 c-0.7 -0.4 -2.8 -0.6 -4.6 -0.3 -2.6 0.4 -3.3 0.2 -3.9 -1.6 -0.3 -1.1 -1 -2.1 -1.4 -2.1 -0.4 0 -1.8 -0.9 -3.1 -2 -1.3 -1.1 -3.1 -2 -4.2 -2 -1 0 -1.8 -0.6 -1.8 -1.3 0 -2.1 -7 -4.9 -13.5 -5.3 -3.3 -0.3 -7.4 -0.9 -9.2 -1.5 -1.8 -0.6 -4.5 -0.8 -6.1 -0.6 -1.6 0.3 -4.5 -0.3 -6.6 -1.4 -2.5 -1.2 -5.7 -1.7 -9.9 -1.6 -7.1 0.1 -12.1 -0.9 -11.2 -2.3 0.3 -0.6 0.2 -1 -0.4 -1 -0.5 0 -1.1 0.4 -1.3 0.9 -0.1 0.5 -2.8 1 -5.8 1.1 -7.8 0.2 -8.3 0.2 -7.7 -1.4 0.3 -0.8 0 -1.3 -0.8 -1.2 -2.3 0.3 -3 1.6 -1.5 2.6 1.1 0.7 0.5 1 -2.2 1 -2 0 -4 0.5 -4.3 1 -0.4 0.6 -1.1 0.8 -1.6 0.5 -1.9 -1.2 -4.9 -1.3 -4.9 -0.2 0 0.8 -0.3 0.8 -0.9 -0.1 -0.7 -1.2 -1.1 -1.1 -2.2 0.1 -1.2 1.3 -1.8 1.3 -4 0.1 -1.5 -0.7 -3 -1 -3.3 -0.6 -0.4 0.3 -0.4 -0.1 0 -1.1 0.3 -0.9 1.4 -1.7 2.4 -1.7 1 0 2 -0.6 2.3 -1.3 0.8 -2.1 10.5 -7.7 11 -6.4 0.3 0.8 0.9 0.7 1.8 -0.4 0.8 -0.9 3.3 -2.9 5.6 -4.3 2.4 -1.4 4.3 -3 4.3 -3.5 0 -0.5 3.3 -2.6 7.2 -4.7 9.1 -4.8 15.9 -5.2 22.6 -1.4 2.3 1.3 4.2 2.7 4.2 3.2 0 0.4 0.6 0.8 1.4 0.8 0.8 0 1.6 0.7 2 1.5 0.3 0.8 1.3 1.5 2.3 1.5 1 0 6.6 3 12.6 6.6 8.5 5.3 10.7 7.2 10.7 9 0 1.7 1 2.6 4.4 3.9 2.5 1 4.9 1.4 5.5 1.1 0.5 -0.4 6 2.4 12 6.1 6.1 3.8 10.7 6.9 10.1 7.1 -0.5 0.2 -0.6 1.1 -0.3 2 0.3 0.9 0.3 1.4 -0.2 1 -0.4 -0.4 -1.5 -0.3 -2.4 0.2 -1 0.5 -2.3 0.5 -3.1 0z m-7.3 -3.7 c-0.4 -0.3 -0.7 0 -0.7 0.7 0 0.7 0.3 1 0.7 0.7 0.3 -0.4 0.3 -1 0 -1.4z m-30 -12.9 c-0.3 -0.3 -1.2 -0.4 -1.9 -0.1 -0.8 0.3 -0.5 0.6 0.6 0.6 1.1 0.1 1.7 -0.2 1.3 -0.5z m9.3 -0.9 c0 -0.3 -0.2 -0.5 -0.5 -0.5 -0.3 0 -0.5 0.2 -0.5 0.5 0 0.3 0.2 0.5 0.5 0.5 0.3 0 0.5 -0.2 0.5 -0.5z m-53 -5 c0 -0.3 -0.2 -0.5 -0.5 -0.5 -0.3 0 -0.5 0.2 -0.5 0.5 0 0.3 0.2 0.5 0.5 0.5 0.3 0 0.5 -0.2 0.5 -0.5z m3 0 c0 -0.3 -0.2 -0.5 -0.5 -0.5 -0.3 0 -0.5 0.2 -0.5 0.5 0 0.3 0.2 0.5 0.5 0.5 0.3 0 0.5 -0.2 0.5 -0.5z m-10 -1 c0 -0.3 -0.2 -0.5 -0.5 -0.5 -0.3 0 -0.5 0.2 -0.5 0.5 0 0.3 0.2 0.5 0.5 0.5 0.3 0 0.5 -0.2 0.5 -0.5z m7 -1 c0 -0.3 -0.2 -0.5 -0.5 -0.5 -0.3 0 -0.5 0.2 -0.5 0.5 0 0.3 0.2 0.5 0.5 0.5 0.3 0 0.5 -0.2 0.5 -0.5z"/>
 </g>
</svg>