<?xml version="1.0" encoding="UTF-8"?>
<svg id="Warstwa_1" data-name="Warstwa 1" xmlns="http://www.w3.org/2000/svg" viewBox="0 0 1073.79 267.99">
  <defs>
    <style>
      .cls-1 {
        fill: #252a57;
      }

      .cls-2 {
        fill: #ff6900;
      }
    </style>
  </defs>
  <path class="cls-2" d="M155.6,128.19c-1.6-1.8-3.7-2.8-6-2.9-3-.1-6.1,1.4-8.9,4.2-11.1,10.8-22.1,21.6-33.1,32.5-4.9,4.8-9.7,9.6-14.7,14.5l-5.6,5.5-6.8-7c-6.2-6.4-12.4-12.7-18.5-19-5.2-5.3-10.8-6.1-14.9-2.2-1.8,1.7-2.7,3.8-2.8,6-.1,2.9,1.4,6,4.2,8.9,9.9,10.1,19.8,20.2,29.7,30.3,3,3.1,6,4.6,9,4.6s5.8-1.4,8.8-4.3c19.2-18.9,38.5-37.7,57.7-56.6,4.8-4.9,5.6-10.5,1.9-14.5"/>
  <path class="cls-1" d="M134.8,172.09l-14.6,14.3,10.8,26.3c.8,1.8,2,3.3,3.5,4.4,1.6,1.2,3.4,1.7,5.5,1.7,2.5,0,4.6-.8,6.5-2.5s2.9-3.9,2.9-6.6c0-.8-.2-2-.6-3.7l-14-33.9Z"/>
  <path class="cls-1" d="M83.7,47.29c-.8-1.8-2-3.3-3.5-4.4-1.6-1.2-3.4-1.7-5.5-1.7-4.4,0-7.6,2.1-9.2,6.2L.4,206.89c-.2.7-.4,1.6-.4,2.9v.9c.2,2.4,1.1,4.4,2.5,5.9,1.5,1.5,3.7,2.3,6.6,2.3,2.7,0,6.4-1.1,8.5-6.2l18.3-45.2,5.7-14.5,32.2-79.9,32.4,79.1,14.6-14.3-37.1-90.6Z"/>
  <path class="cls-1" d="M267.7,96.19c-9.2-5.7-19.5-8.6-30.6-8.6-10,0-19.3,2.3-27.6,6.9-6.3,3.5-11.5,7.9-15.6,13.4v-10.2c0-2.6-.9-4.9-2.6-6.8-1.8-1.9-4-2.8-6.7-2.8s-5,1-6.7,2.8c-1.8,1.8-2.6,4.1-2.6,6.8v160.9c0,2.7.9,4.9,2.7,6.7s4,2.7,6.7,2.7,4.9-.9,6.7-2.7,2.7-4,2.7-6.7v-59c4.4,5.5,9.8,10.1,16.2,13.7,8.2,4.7,17.4,7,27.2,7,11.2,0,21.4-2.9,30.5-8.7,9.1-5.8,16.3-13.8,21.4-23.8s7.7-21.5,7.7-34.1-2.6-23.8-7.7-33.8c-5.3-10.1-12.6-18.1-21.7-23.7M278.7,153.69c0,9.4-1.9,17.9-5.6,25.3-3.7,7.4-8.9,13.2-15.3,17.4h0c-6.5,4.1-13.9,6.2-22,6.2s-15.8-2.1-22.4-6.2c-6.6-4.1-11.7-10-15.3-17.3-3.6-7.4-5.5-15.9-5.5-25.3s1.8-17.8,5.5-25.2c3.6-7.3,8.8-13,15.3-17.1,6.6-4.1,14.1-6.1,22.4-6.1s15.5,2.1,22,6.2,11.7,9.9,15.3,17.2c3.8,7.4,5.6,15.7,5.6,24.9"/>
  <path class="cls-1" d="M334.5,32.09c-2.7,0-4.9.9-6.7,2.7-1.8,1.8-2.7,4-2.7,6.7v167.8c0,2.7.9,4.9,2.7,6.7,1.8,1.8,4,2.7,6.7,2.7s4.9-.9,6.7-2.7h0c1.8-1.8,2.7-4,2.7-6.7V41.39c0-2.7-.9-4.9-2.7-6.7-1.8-1.7-4.1-2.6-6.7-2.6"/>
  <path class="cls-1" d="M389.2,86.39c-2.7,0-4.9.9-6.7,2.7-1.8,1.8-2.7,4-2.7,6.7v113.5c0,2.7.9,4.9,2.7,6.7,1.8,1.8,4,2.7,6.7,2.7s4.9-.9,6.7-2.7h0c1.8-1.8,2.7-4,2.7-6.7v-113.6c0-2.7-.9-4.9-2.7-6.7-1.7-1.7-4-2.6-6.7-2.6"/>
  <path class="cls-1" d="M389.5,49.09c-3.7,0-6.8.9-9,2.8-2.4,1.9-3.5,4.7-3.5,8.3v2.5c0,3.5,1.1,6.3,3.4,8.3,2.2,1.9,5.2,2.8,8.9,2.8s6.8-1,8.8-2.9c2.1-1.9,3.2-4.7,3.2-8.2v-2.5c0-7.2-4.2-11.1-11.8-11.1"/>
  <path class="cls-1" d="M484.4,146.49l49.4-42c2.2-2.2,3.3-4.6,3.3-7.1,0-2.3-.9-4.5-2.8-6.4-3.9-4.1-9.6-3.7-12.8,0l-68.1,58.6V41.39c0-2.7-.9-4.9-2.7-6.7-1.8-1.8-4-2.7-6.7-2.7s-4.9.9-6.7,2.7c-1.8,1.8-2.7,4-2.7,6.7v167.8c0,2.7.9,4.9,2.7,6.7,1.8,1.8,4,2.7,6.7,2.7s4.9-.9,6.7-2.7c1.8-1.8,2.7-4,2.7-6.7v-36.3l16.4-14,53.2,56.3c1.9,2.3,4.2,3.4,6.9,3.4,1.9,0,4-.9,6-2.5,2.2-1.8,3.3-4.1,3.3-6.8s-.9-5-2.7-7l-52.1-55.8Z"/>
  <path class="cls-1" d="M666.8,91.99c-1.8-1.8-4-2.7-6.7-2.7s-4.9.9-6.7,2.7c-1.8,1.8-2.7,4-2.7,6.7v69.6c0,11.2-3,19.9-8.9,25.6-5.9,5.8-14.5,8.7-25.4,8.7s-19.2-2.9-25-8.7c-5.8-5.8-8.8-14.4-8.8-25.6v-69.6c0-2.7-.9-4.9-2.7-6.7-1.8-1.8-4-2.7-6.7-2.7s-4.9.9-6.7,2.7c-1.8,1.8-2.7,4-2.7,6.7v69.6c0,16.6,4.7,29.6,14,38.5,9.3,9,22.2,13.5,38.5,13.5s29.5-4.5,38.9-13.5,14.2-22,14.2-38.5v-69.6c.1-2.7-.8-4.9-2.6-6.7h0Z"/>
  <path class="cls-1" d="M717.1,48.89c-3.7,0-6.8.9-9,2.8-2.4,1.9-3.5,4.7-3.5,8.3v2.5c0,3.5,1.1,6.3,3.4,8.3,2.2,1.9,5.2,2.8,8.9,2.8s6.8-1,8.8-2.9c2.1-1.9,3.2-4.7,3.2-8.2v-2.5c0-7.2-4.1-11.1-11.8-11.1"/>
  <path class="cls-1" d="M716.9,89.09c-2.7,0-4.9.9-6.7,2.7-1.8,1.8-2.7,4-2.7,6.7v127.3c0,6.5-1.8,11.7-5.5,15.5-3.7,3.9-8.5,6.4-14.1,7.4-2.4.4-4.3,1.4-5.8,2.9-1.5,1.6-2.3,3.6-2.3,5.9v1c0,2.5.9,4.6,2.6,6.3,1.7,1.7,3.8,2.6,6.3,2.6,5.9,0,11.8-1.6,17.6-4.8,5.8-3.2,10.6-7.8,14.3-13.8s5.6-13,5.6-20.9V98.39c0-2.7-.9-4.9-2.7-6.7-1.7-1.7-4-2.6-6.6-2.6"/>
  <path class="cls-1" d="M769.4,190.49h-1.7c-3.4,0-6,1.1-7.9,3.1-1.8,2-2.7,4.8-2.7,8.2v5.2c0,3.4.9,6.2,2.7,8.3,1.9,2.2,4.5,3.3,7.9,3.3h1.7c3.4,0,6-1.1,7.9-3.3,1.8-2.1,2.7-4.9,2.7-8.3v-5.2c0-3.4-.9-6.2-2.7-8.2-1.9-2.1-4.5-3.1-7.9-3.1"/>
  <path class="cls-1" d="M901,96.19c-9.2-5.7-19.5-8.6-30.6-8.6-10,0-19.3,2.3-27.6,6.9-6.3,3.5-11.5,7.9-15.6,13.4v-10.2c0-2.6-.9-4.9-2.6-6.8-1.8-1.9-4-2.8-6.7-2.8s-5,1-6.7,2.8c-1.8,1.8-2.6,4.1-2.6,6.8v160.9c0,2.7.9,4.9,2.7,6.7s4,2.7,6.7,2.7,4.9-.9,6.7-2.7,2.7-4,2.7-6.7v-59c4.4,5.5,9.8,10.1,16.2,13.7,8.2,4.7,17.4,7,27.2,7,11.2,0,21.4-2.9,30.5-8.7,9.1-5.8,16.3-13.8,21.4-23.8,5.1-10,7.7-21.5,7.7-34.1s-2.6-23.8-7.7-33.8c-5.3-10.1-12.6-18.1-21.7-23.7M912,153.69c0,9.4-1.9,17.9-5.6,25.3-3.7,7.4-8.9,13.2-15.3,17.4h0c-6.5,4.1-13.9,6.2-22,6.2s-15.8-2.1-22.4-6.2c-6.6-4.1-11.7-10-15.3-17.3-3.6-7.4-5.5-15.9-5.5-25.3s1.8-17.8,5.5-25.2c3.6-7.3,8.8-13,15.3-17.1,6.6-4.1,14.1-6.1,22.4-6.1s15.5,2.1,22,6.2,11.7,9.9,15.3,17.2c3.8,7.3,5.6,15.7,5.6,24.9"/>
  <path class="cls-1" d="M974.5,34.79c-1.8-1.8-4-2.7-6.7-2.7s-4.9.9-6.7,2.7c-1.8,1.8-2.7,4-2.7,6.7v167.8c0,2.7.9,4.9,2.7,6.7s4,2.7,6.7,2.7,4.9-.9,6.7-2.7h0c1.8-1.8,2.7-4,2.7-6.7V41.39c-.1-2.6-1-4.9-2.7-6.6"/>
  <path class="cls-1" d="M1050.54,46.48c-4.29,0-8.2-1-11.72-3.01-3.53-2.01-6.35-4.77-8.46-8.3-2.11-3.53-3.16-7.5-3.16-11.93s1.05-8.39,3.16-11.88c2.11-3.49,4.93-6.26,8.46-8.3,3.53-2.04,7.43-3.06,11.72-3.06s8.18,1.02,11.67,3.06c3.49,2.04,6.29,4.81,8.4,8.3,2.11,3.49,3.16,7.45,3.16,11.88s-1.06,8.4-3.16,11.93c-2.11,3.53-4.91,6.3-8.4,8.3-3.49,2.01-7.39,3.01-11.67,3.01ZM1050.54,42.02c3.46,0,6.57-.79,9.34-2.39,2.77-1.59,4.98-3.8,6.64-6.64,1.66-2.84,2.49-6.09,2.49-9.75s-.83-6.9-2.49-9.7c-1.66-2.8-3.87-5.01-6.64-6.64-2.77-1.62-5.88-2.44-9.34-2.44s-6.69.81-9.49,2.44c-2.8,1.63-5.03,3.84-6.69,6.64-1.66,2.8-2.49,6.04-2.49,9.7s.83,6.92,2.49,9.75c1.66,2.84,3.89,5.05,6.69,6.64,2.8,1.59,5.97,2.39,9.49,2.39ZM1044.32,35.69c-.55,0-1.06-.19-1.5-.57-.45-.38-.68-.85-.68-1.4V12.66c0-.42.17-.81.52-1.19.34-.38.76-.57,1.25-.57h7.57c2.63,0,4.68.57,6.17,1.71,1.49,1.14,2.23,2.92,2.23,5.34,0,1.73-.55,3.11-1.66,4.15-1.11,1.04-2.59,1.76-4.46,2.18l-.21-.83c1.11.21,2.14.88,3.11,2.02.97,1.14,1.45,2.47,1.45,3.99,0,1.04.1,1.78.31,2.23.21.45.52.78.93.99.48.14.78.38.88.73.1.35.09.66-.05.93-.14.55-.5.95-1.09,1.19-.59.24-1.26.33-2.02.26-.83-.07-1.57-.59-2.23-1.56-.66-.97-.99-2.42-.99-4.36,0-1.18-.28-2.13-.83-2.85-.55-.73-1.45-1.09-2.7-1.09h-4.88l1.04-1.04v8.82c0,.55-.21,1.02-.62,1.4-.42.38-.93.57-1.56.57ZM1050.75,22c1.38,0,2.56-.33,3.53-.99.97-.66,1.45-1.57,1.45-2.75,0-1.25-.42-2.11-1.25-2.59-.83-.48-1.94-.73-3.32-.73h-6.23l1.56-1.14v8.92l-1.04-.73h5.29Z"/>
</svg>