<?xml version="1.0" encoding="utf-8"?>
<!-- Generator: Adobe Illustrator 19.2.1, SVG Export Plug-In . SVG Version: 6.00 Build 0)  -->
<svg version="1.1" id="Layer_1" xmlns="http://www.w3.org/2000/svg" xmlns:xlink="http://www.w3.org/1999/xlink" x="0px" y="0px"
	 viewBox="0 0 110 44" width="110" height="44" style="enable-background:new 0 0 110 44;" xml:space="preserve">
<style type="text/css">
	.st0{fill:#1D1D1B;}
	.st1{fill:#0060A8;}
</style>
<path class="st0" d="M0.3,9.2h4.4V12h0.1c0.7-1.8,2.1-3.1,4.5-3.1c2.8,0,4.4,2.1,4.4,5.9v14.2c0,3.7-1.7,5.9-4.4,5.9
	c-1.7,0-3.4-0.8-4.3-1.7v10.6H0.3V9.2L0.3,9.2z M5,28.8c0,1.9,1,2.7,1.9,2.7C8.2,31.5,9,30.8,9,28V16c0-2.7-0.8-3.4-1.8-3.4
	c-1.3,0-2.2,1-2.2,4.1C5,16.7,5,28.8,5,28.8z"/>
<path class="st0" d="M17.3,9.2h4.4v2.7h0.1c1.1-2.4,1.9-3,4.2-3v4.8c-2.4,0-4,0.7-4,3.3v17.9h-4.7V9.2z"/>
<path class="st0" d="M28.7,14.4c0-3.8,2.3-5.5,6.8-5.5c4.3,0,6.7,1.7,6.7,6.2v19.5h-4.4v-2.7c-0.6,0.6-0.9,1.1-1.4,1.6
	c-0.9,0.9-2.2,1.4-3.4,1.4c-2.8,0-4.6-0.9-4.6-7c0-5.1,0.4-6.3,1.7-7.7c1.1-1.2,1.9-1.6,7.4-1.6v-4.1c0-1.5-0.4-2.4-2-2.4
	c-1.3,0-2,0.6-2,2.1v2.3h-4.7L28.7,14.4L28.7,14.4z M35.9,22.1c-2.2,0-2.8,1.2-2.8,5.2c0,3.8,0.4,4.3,1.9,4.3c1.6,0,2.5-1.2,2.5-2.9
	v-6.6H35.9z"/>
<path class="st0" d="M45.7,15.7c0-4.3,2.5-6.9,6.7-6.9c4.3,0,6.2,2.1,6.2,5.1v2.6h-4.4V15c0-1.9-0.7-2.7-1.8-2.7c-1.1,0-1.8,1-1.8,3
	v14c0,1.5,0.6,2.4,1.8,2.4c1.3,0,1.8-0.9,1.8-2.5v-3.1h4.4v3.9c0,3.9-3.2,5-6.1,5c-3.6,0-6.7-1.6-6.7-6.4L45.7,15.7L45.7,15.7z"/>
<path class="st0" d="M62.4,14.4c0-3.8,2.3-5.5,6.8-5.5c4.3,0,6.7,1.7,6.7,6.2v19.5h-4.5V32c-0.6,0.6-0.9,1.1-1.4,1.6
	c-0.9,0.9-2.2,1.4-3.4,1.4c-2.8,0-4.6-0.9-4.6-7c0-5.1,0.4-6.3,1.7-7.7c1.1-1.2,1.9-1.6,7.4-1.6v-4.1c0-1.5-0.4-2.4-2-2.4
	c-1.3,0-2,0.6-2,2.1v2.3h-4.7V14.4L62.4,14.4z M69.6,22.1c-2.2,0-2.8,1.2-2.8,5.2c0,3.8,0.4,4.3,1.9,4.3c1.6,0,2.5-1.2,2.5-3V22
	L69.6,22.1L69.6,22.1z"/>
<path class="st0" d="M97.1,27.9c0,2.9-0.8,3.6-2.1,3.6c-1,0-1.9-0.8-1.9-2.7V16.7c0-3.1,0.9-4.1,2.2-4.1c1.1,0,1.8,0.7,1.8,3.4V27.9
	L97.1,27.9z M97.4,8.9c-2.4,0-3.8,1.4-4.5,3.1h-0.1V9.2h-4.5V24c1.7,1.3,2.8,3.4,2.8,5.7S90,34,88.3,35.3v8.4H93V33.1
	c0.9,1,2.6,1.7,4.3,1.7c2.8,0,4.4-2.1,4.4-5.9V14.7C101.8,11,100.1,8.9,97.4,8.9L97.4,8.9z"/>
<rect x="105.4" y="0.1" class="st0" width="4.7" height="34.8"/>
<path class="st1" d="M83.2,25.1c-2.6,0-4.7,2.1-4.7,4.7c0,2.6,2.1,4.7,4.7,4.7c2.6,0,4.7-2.1,4.7-4.7S85.8,25.1,83.2,25.1z"/>
</svg>
